<?xml version="1.0" encoding="UTF-8" standalone="no"?>
<svg id="svg2" xmlns:rdf="http://www.w3.org/1999/02/22-rdf-syntax-ns#" xmlns="http://www.w3.org/2000/svg" height="1095pt" width="798pt" version="1.1" xmlns:cc="http://creativecommons.org/ns#" xmlns:dc="http://purl.org/dc/elements/1.1/" viewBox="0 0 798 1095">
<g id="g4445">
<path id="path4290" d="m606.54 6.6367c-3.32-0.0351-6.73 0.384-10.22 1.3262-12.18-3.6125-18.6 7.7741-27.6 13.199-23 26.263-5.42 76.689-42.41 91.388-37.29 22.36-81.21 23.99-120.01 42.5-18.16 5.38-30.99 19.77-46.41 29.84-28.29 19.33-40.54 59.72-28.9 91.14-36.1 12.13-71.19 27.65-105.18 44.78-40.93 23.04-69.55 66.26-74.66 112.79-2.12 6.4-0.46 15.45-7.66 18.8-43.839 24.04-80.528 61.5-98.928 108.38-10.45 30.92-25.725 64.03-11.988 96.62-6.287 6.66-16.236 10.08-19.898 19.03-4.7252 0.22-10.264 4.87-6.3264 9.66 21.012 73.02 24.1 149.42 41.712 223.44 14.238 79.7 24.937 160.07 45.012 238.67 6.063 32.6 17.026 63.5 22.536 96.1 33.1 34.1 73.04 65.2 120.27 75.7 54.13 2.2 106.63 22.5 161.03 23.1 26.08 8.1 52.87 6.1 79.03 5.1 35.66 2.9 70.07 0.7 105.81 2 25.23 2 49.22-6.9 74.47-6.8 27.49 0.6 53.69-9.1 79.37-17.8 45.99-8.9 94.72-28.4 125.42-63.4 12.36-0.7 15.13-15 19.61-24 31.13-81.3 31.42-169.1 46.7-253.44 9.27-33.92 7.28-70.16 17.36-103.56 7.11-75.31 22.32-149.08 42.98-222.1 5.73-4.09 7.46-20.22-2.5-13.74-4.57-6.43-11.18-10.25-19.55-7.89 3.59-34.62-12.17-66.03-25.29-96.61-25.9-33.32-53.73-79.54-102.21-79.01-15.9 5.87-10.55-15.57-14.43-24.32-4.65-52.57-34.62-107.54-85.49-126.27-1.68-29.56 12.59-62.56-2.23-91.17-1.52-29.21-16.7-55.55-34.14-78.21-9.57-11.7-34.61-11.38-29.56-31.52-4.19-20.359-6.44-41.598-15.97-60.448-8.2-20.562-26.58-43.029-49.75-43.275z" transform="scale(.8)" fill="#dabe90"/>
<path id="path4" fill="#434143" d="m477.06 6.37c22.34-6.03 40.48 14.76 47.97 33.56 7.63 15.08 9.43 32.07 12.78 48.36-4.04 16.11 15.99 15.85 23.65 25.21 13.95 18.13 26.09 39.2 27.31 62.57 11.85 22.89 0.44 49.29 1.78 72.94 40.7 14.98 64.67 58.96 68.39 101.01 3.11 7-1.17 24.16 11.55 19.46 38.78-0.42 61.05 36.55 81.77 63.21 10.49 24.46 23.1 49.59 20.23 77.29-2.91 6.29-5.45 12.77-8.73 18.89-2.3 8.61-17.05 15.43-19 3.4 22.98-19.04 13.39-53.38 2.66-76.74-4.51-16.14-18.69-26.52-25.34-41.53-1.95-2.72-4.63-4.74-7.22-6.79-5.29-4.76-8.76-13.45-16.59-14.24-7.9-9.49-22.94-14.3-35.83-11.86-2.7 22.74-9.26 44.93-20.47 64.97-9.64 9.4-17.37 20.14-24.35 31.53-13.39 12.31-27.58 24.79-45.06 30.92-17.58 7.36-33.9 18.3-53.19 20.75-13.92 6.26-34.23 5.17-41.7 20.45-13.93 18.62-32.01 50.72-9.66 70.08 12.16-1.16 25.45-2.22 36.61-6.72 6.13 0.25 12.2-0.8 18.07-2.5 21.46-0.4 42.2-6.49 63.32-9.35 13.78-3.67 28.18-4.62 41.69-9.42 18.85-4.97 37.44-11.07 56.27-15.64 21.92-9.18 43.86-18.3 64.21-30.96 7.96-1.88 13.06-8.97 19.76-13.21 6.16-5.98 13.67-10.13 20.19-15.72 7.97-5.19 6.58 7.72 2 10.99-16.53 58.42-28.7 117.43-34.39 177.68-8.06 26.72-6.47 55.71-13.88 82.85-12.23 67.46-12.46 137.72-37.36 202.74-3.59 7.17-5.8 18.65-15.69 19.25-24.56 28-63.55 43.6-100.34 50.7-20.54 6.9-41.5 14.7-63.49 14.2-20.2-0.1-39.4 7.1-59.58 5.5-28.59-1.1-56.12 0.7-84.65-1.6-20.93 0.8-42.36 2.4-63.22-4.1-43.52-0.5-85.52-16.7-128.83-18.5-37.78-8.4-69.73-33.3-96.21-60.54-4.41-26.06-13.18-50.83-18.03-76.94-16.06-62.81-24.62-127.14-36.01-190.9-14.09-59.21-16.56-120.33-33.37-178.75-3.15-3.83 1.28-7.55 5.06-7.73 7.83-0.35 14.24-5 22.11 0.61-1.28-5.54-3.74-10.72-6.19-15.83-10.99-26.07 1.23-52.56 9.59-77.3 14.72-37.5 44.07-67.47 79.14-86.7 5.76-2.68 4.43-9.92 6.13-15.04 4.09-37.22 26.98-71.8 59.73-90.23 27.19-13.71 55.26-26.12 84.14-35.83-9.31-25.13 0.49-57.44 23.12-72.91 12.34-8.05 22.6-19.57 37.13-23.87 31.04-14.81 66.18-16.11 96.01-34 29.59-11.76 15.53-52.1 33.93-73.11 7.2-4.34 12.33-13.45 22.08-10.56m-11.46 19.26c-12.79 18.34-6.93 42.98-18.69 62.19-23.59 22.44-57.37 28.86-86.29 37.91-29.7 6.38-60.02 21.42-78.48 45.97-1.6 2.7-3.35 5.45-4.01 8.55-8.18 9.76-8.04 24.87-1.62 35.99 48.83-5.32 101.44-10.12 151.32-15.23 27.68-7.85 59.9-18.1 79.9-41.35 9.43-25.1 17.63-54.26 12.32-79.82-0.79-3.77 0.51-9.46-2.04-11.89-2.95-15.36-8.25-31.45-20.6-42.04-6.88-8.48-23.04-7.37-31.81-0.28m64.97 106.89c-6.96 10.46-8.35 23.3-12.1 34.93-1.28 3.48-2.79 7.09-6.26 8.91-18.73 9.8-37.04 23.3-57.53 30.31-55.76 17.86-117.7 11.35-176.03 21.74-14.27 8.85-34.88 6.44-46.37 18.93-21.96 6.09-42.61 16.63-60.35 30.61-4.6-0.7-6.94 3.85-8.75 7.26-17.6 17.22-28.45 41.78-30.18 66.39 27.81-7.64 56.23-19.9 85.45-24.33 21.51-0.44 38.84-5.88 57.56-7.09 19.02-5.62 42.13-8 58.87-13.25 22.08-3.8 39.93-18.91 60.23-26.69 6.77 2.29-1.08 10.76-2.89 14.03-20 14.04-40.83 20.77-60.25 26.76-13.05 0.09-25.78 4.18-38.39 6.46-29.92 9.05-61.42 10.35-91.98 16.1-63.71 13.2-134.88 46.32-156.67 113.32-13.24 26.92-16.51 60.64 2.34 85.8 2.21 2.5-4.41 4.87-1.47 7.39 9.46 4.81 16.63 14.25 27.86 15.06 20.49 12.22 43.23 20.7 65.62 29.01 16.06 5.94 36.78 15.62 56.36 15.86 5.49 6.27 18.01 0.98 25.8 4.53 5.51-0.24 13.37 5.53 17.51 1.49-11.84-14.04-20.21-30.75-24.39-48.72-0.45-34.78 13.38-68.03 31.48-97.25 8.54-9.46 19.83-16.18 30.85-22.19 42.31-17.05 88.16-25.02 132.41-38.66 18.88-2.17 35.66-15.82 51.24-19.5 19.04-9.18 38.83-17.23 55.24-30.99 28.34-16.29 40.53-49.05 52.39-77.68 7.71-29.76 13.8-63.75 10.01-92.95l0.08-1.8c-5.53-23.83-12.71-47.23-29.07-65.49-2.74-3.94-8.25-5.36-12.12-7.82-5.75 4.22-3.37 13.43-6.5 19.52m55.72 128.49c-5.12 22.6-13.11 46.02-25.19 66.09-8.27 16.55-19.75 32.33-38.36 37.59-13.2 10.1-26.64 20.46-42.89 25.14-22.84 6.84-41.98 22.89-65.72 27.26-32.11 8.39-64.4 16.41-96.15 25.91-18.64 9.41-42.53 9.16-55.93 27.26-21.89 24.51-33.88 57.58-34.08 90.32 4.77 22.57 17.36 43.07 32.23 60.37 32.41 7.17 66.61 8.85 100.79 8.85 29.22-3.24 60.1-0.27 88.21-8.9-1.97-5.25-4.09-10.46-5.2-15.97-3.13-27.73 13.23-54.89 34.55-71.45 44.45-18.96 98.68-24.14 130.77-64.14 25.57-29.05 47.71-70.05 37.44-109.64-0.22-1.26 0.81-3.09-0.49-3.91-0.65-6.93-1.81-13.81-2.28-20.75-8.89-29.95-26.44-63.85-57.7-74.03m170.53 293.89c-4.73 2.98-10.88 4.24-14.73 8.19-7.43 2.7-15.09 7.19-21.26 10.09-10.19 3.6-20.47 10.84-30.62 12.64-13.9 4.56-27.99 7.93-40.56 12.88-1.29 0.35-3.1 0.14-3.85 1.47-13.33 4.02-29.34 6.25-42.41 9.03-17.03 0.84-32.74 8.93-49.59 10.21-11.21 1.07-23.59 4.03-33.63 4.53-13.79 2.6-29.95 2.74-42.16 6.86-4.37 0.72-11.53-1.14-13.67 1.31-4.88 0.97-13.5 0.47-15.84 4.14-4.22 0.8-8.75-0.77-12.78 0.75-8.22-0.13-16.44-0.09-24.65-0.19-16.5 1.3-32.85 2.72-49.37 3.53-5.76-0.73-11.63-0.61-17.38-0.19-16.32 2.32-31.41-4.13-47.47-2.92-10.47-2.38-21.38-1.8-32-3.24-8.14-2.54-20.26-3.77-30.03-5.15-7.12-1.66-17.24-3.95-25.8-2.76-3.45-2.83-10.76-0.47-15.39-3.22-11.58-2.51-29.23-4.74-42.38-10.04-8.64-3.05-16.27-8.82-25.28-10.72-2.71-3.58-9.89-3.18-14.15-4.13-11.55-3.93-23.34-12-35.51-16.08-5.94-3.49-12.85-5.35-18.31-9.83-1.03-2.56-3.77-3.48-6.21-4.14-10-4.08-19.72-14.97-31.81-15.48 16.02 95.46 31.78 190.35 49.75 285.72 6.72 38.75 17.2 76.7 26.01 114.6-5.88 6.8 7.35 8.69 4.21 16.4-0.57 14.18 10.57 24.91 21.32 32.54 23.11 25.9 56.78 39.9 90.14 46.9 36.09 4.4 71.77 8.5 107 16 37 7.6 75.66 4.8 112.53 4.5 25.33 3 50.59-2 75.81-3.8 14.73-2.7 30.59-1.7 44.42-7.4 8.74-0.2 18.06-1.1 25.9-4.7 42.55-10.1 88.1-28.8 113.14-64.93 10.52-22.64 17.47-47.72 21.29-72.16 9.82-37.91 9.79-77.05 17.2-115.18 6.15-47.78 15.44-96.23 21.25-143.94 8.03-30.39 10.23-64.99 19.32-96.63 2.5-4.69 2.51-10.18 3.66-15.28-5.61 2.1-10.64 6.88-16.11 9.82z"/>
<path id="path6" fill="#eaeafd" d="m465.6 25.63c8.77-7.09 24.93-8.2 31.81 0.28 3.64 11.33 24.73 29.84 13 45.56-18.74 13.12-24.68 37.3-42.71 51.24-13.1 9.23-26.66 18-41.24 24.76-25.33 9.38-52.7 9.76-78.85 15.15-22.99-1.54-45.22 6.72-65.24 16.87-5.91 2.05 3.83-7.33-0.23-7.79 18.46-24.55 48.78-39.59 78.48-45.97 28.92-9.05 62.7-15.47 86.29-37.91 11.76-19.21 5.9-43.85 18.69-62.19z"/>
<path id="path8" fill="#ddc6de" d="m510.41 71.47c11.73-15.72-9.36-34.23-13-45.56 12.35 10.59 17.65 26.68 20.6 42.04 4.54 18.26-0.66 32.71-11.94 46.17-8.22-14.19-1.37 15.9-14 12.9-11.58-4.98 1.78 15.04-11 10.23-2.07 10.27-14.91 7.75-20.3 9.05 3.18 9.99-17.92 7.58-22.68 15.53 4.93-7.74-11.98-5.39-15.17 2.15-3.9-2.33-13.62-8.89-13.84-0.44-6.43 4.91-15.81 2.91-21.29-2.43-8.01 1.47 6.65 7.22 2.03 11.39-3.05-0.56-4.74-4.72-8.1-2.1 2.74-8.38-13.57-9.38-12.48-2.26-1.01 5.39-4.73-4.73-6.06-1.28 4.19 7.14-6.65 6.8-10.26 11.12-4.65-2.63-2.43-8.59 2.78-6.09 0.69-5.87-13.33-8.65-10.36-0.35-1.42 7.6-1.4-7.92-4.38-1.5-0.61 9.74-17.67 8.73-15.87-1.39-1.88 0.03-2.98 3.52-3.72 5.33 8.98 8.23-16.68 10.44-9.46-1.12-0.33 9.77-10.49 5.92-10.33 11.63-9.75-1.12-15.37 11.18-25.14 10.24-0.19-4.88 1.23-9.65 1.69-14.48 0.66-3.1 2.41-5.85 4.01-8.55 4.06 0.46-5.68 9.84 0.23 7.79 20.02-10.15 42.25-18.41 65.24-16.87 26.15-5.39 53.52-5.77 78.85-15.15 14.58-6.76 28.14-15.53 41.24-24.76 18.03-13.94 23.97-38.12 42.71-51.24z"/>
<path id="path10" fill="#d8b8d4" d="m518.01 67.95c2.55 2.43 1.25 8.12 2.04 11.89 1.93 14.37-0.14 30.04-7.41 42.46-7.31-3.47-10.03 5.83-13.73 10.62-13.43 8.53-27.19 16.68-39.89 26.14-40.28 19.07-84.71 20.64-128.11 23.41-12.12-1.53-23.5 3.48-35.05 6.37-3.73 5.8 7.84 10.29 4.21 14.93-4.8-1.94-7.94-8.83-14.58-8.6 0.21 3.37-1.84 12.63 3.77 10.07 3.35-4.37 7.51 0.71 10.59 2.85-1.87 7.55-9.67 2.24-14.95 2.67-0.47 4.3-4.12 5.96-8.39 5.48-6.42-11.12-6.56-26.23 1.62-35.99-0.46 4.83-1.88 9.6-1.69 14.48 9.77 0.94 15.39-11.36 25.14-10.24-0.16-5.71 10-1.86 10.33-11.63-7.22 11.56 18.44 9.35 9.46 1.12 0.74-1.81 1.84-5.3 3.72-5.33-1.8 10.12 15.26 11.13 15.87 1.39 2.98-6.42 2.96 9.1 4.38 1.5-2.97-8.3 11.05-5.52 10.36 0.35-5.21-2.5-7.43 3.46-2.78 6.09 3.61-4.32 14.45-3.98 10.26-11.12 1.33-3.45 5.05 6.67 6.06 1.28-1.09-7.12 15.22-6.12 12.48 2.26 3.36-2.62 5.05 1.54 8.1 2.1 4.62-4.17-10.04-9.92-2.03-11.39 5.48 5.34 14.86 7.34 21.29 2.43 0.22-8.45 9.94-1.89 13.84 0.44 3.19-7.54 20.1-9.89 15.17-2.15 4.76-7.95 25.86-5.54 22.68-15.53 5.39-1.3 18.23 1.22 20.3-9.05 12.78 4.81-0.58-15.21 11-10.23 12.63 3 5.78-27.09 14-12.9 11.28-13.46 16.48-27.91 11.94-46.17z"/>
<path id="path12" fill="#e1a6ca" d="m520.05 79.84c5.31 25.56-2.89 54.72-12.32 79.82-20 23.25-52.22 33.5-79.9 41.35-49.88 5.11-102.49 9.91-151.32 15.23 4.27 0.48 7.92-1.18 8.39-5.48 5.28-0.43 13.08 4.88 14.95-2.67-3.08-2.14-7.24-7.22-10.59-2.85-5.61 2.56-3.56-6.7-3.77-10.07 6.64-0.23 9.78 6.66 14.58 8.6 3.63-4.64-7.94-9.13-4.21-14.93 11.55-2.89 22.93-7.9 35.05-6.37 43.4-2.77 87.83-4.34 128.11-23.41 12.7-9.46 26.46-17.61 39.89-26.14 3.7-4.79 6.42-14.09 13.73-10.62 7.27-12.42 9.34-28.09 7.41-42.46z"/>
<path id="path14" fill="#c2bdd3" d="m530.57 132.52c3.13-6.09 0.75-15.3 6.5-19.52 3.87 2.46 9.38 3.88 12.12 7.82-3.63-1.82-8.22-3.78-12.11-1.6-2.46 17.28-11.38 32.56-18.61 48.23 3.75-11.63 5.14-24.47 12.1-34.93z"/>
<path id="path16" fill="#eae9fc" d="m537.08 119.22c3.89-2.18 8.48-0.22 12.11 1.6 16.36 18.26 23.54 41.66 29.07 65.49-3.44 11.3-20.22 6.06-30.92 7.28-23.5 27.94-47.52 55.62-75.85 78.87-46.19 29.23-94.33 55.5-147.32 69.67-29.83 10.39-62.08 14.55-90.22 29.82-8.89 4.05-15.31 12.33-24.86 15.11-28.48 10.84-47.91 34.91-73.02 51.02-38.8 30.33-49.69 82.43-50.73 128.42-13.58-3.26-34.68-9.86-36.94-26.74-17.33-22.52-14.06-55.15-2.18-79.61 11.17-34.02 35.18-63.27 66.93-79.98 24.4-18.85 55.51-22.86 83.72-33.34 29.89-5.49 61.02-4.72 90.16-13.96 16.29-2.1 32.17-8.18 48.77-7.31 14.87 2.71 24.87-8.39 38.76-11.08 16.6-2.11 24.96-17.69 35.81-28.37 3.39-9.78 5.39-20.23 10.48-29.32-3.52 0.02-4.57-3.72-7.02-5.4-8.06-2.04-12.02 7.73-17.72 11.73-6.74-0.02-14.1-4.27-20.2 2.07-41.55 8.26-84.41 13.42-126.58 6.73-25.04 3.69-51.01 5.43-75.99 11.67-9.2 3.4-2.95-2.5-1.41-5.64 17.74-13.98 38.39-24.52 60.35-30.61 42.67-21.15 91.06-22.91 137.84-25.85 27.77-4.06 57.48 4.29 83.55-8.84 20.2-10.97 40.53-21.87 58.54-36.29 3.47-1.82 4.98-5.43 6.26-8.91 7.23-15.67 16.15-30.95 18.61-48.23z"/>
<path id="path18" fill="#cdb8ce" d="m454.68 206.67c20.49-7.01 38.8-20.51 57.53-30.31-18.01 14.42-38.34 25.32-58.54 36.29-26.07 13.13-55.78 4.78-83.55 8.84-46.78 2.94-95.17 4.7-137.84 25.85 11.49-12.49 32.1-10.08 46.37-18.93 58.33-10.39 120.27-3.88 176.03-21.74z"/>
<path id="path20" fill="#dfcae1" d="m547.34 193.59c10.7-1.22 27.48 4.02 30.92-7.28l-0.08 1.8c-0.1 1.9-0.06 3.81 0.01 5.71-5.74 2.73-13.34 1.38-17.76 6.75-7.57 13.76 5.62 33.37-11.11 42.63-8.94-2.54 0.47 9.69-6.56 10.69-5.66 1.05-1.97 13.23-9.06 9.69-4.41 4.1-2.58 10.97-5.29 15.74-12.17 5.93-18.62 15.14-32.54 8.93 0.71 2.63 4.48 9.92 0.73 9.2-4.64-8.41-13.41 6.58-15.71-5.31-8.09-1.13 2.19 6.77-1.65 10.88-2.92 3.15-4.29-6.31-6.66-3.09 0.15 5.62 0.2 17.28-8.37 12.86-8.77-0.27 10.28 9.62-2.39 7.9-7.6-3.26-19.76 0.5-30.29-0.28-6.64 3.98-22.79 0.51-19.78 12.33-6.63 0.39-5.67-3.5-4.09-8.36-6.39-1.96-3.87 11.89-11.6 6.68-6.62-8.18-7.08 7.46-14.9 7.9 0.39-3 3.28-8.56-0.61-9.87-0.81 2.54 0.91 10.25-3.37 6.86-3.87-4.79-5.58 7.23-8.6-0.44-16.6 1.68-32.35 8.78-47.46 14.58-0.75 5.52-7.8 1.62-11.36 2.7-5.52-0.87-9.7 8.28-13.53 7.22 0.09-11.99-5.41 11.06-9.73 1.48-5.91 0.33-15.05 18.8-21.26 7.18-2.43-0.13-5.36 13.71-7.59 7.75 4.21-6.47-4.88-5.74-8.56-3.36-2.93 7.02-14.63 24.99-22.06 12.19-3.2 4.73-9.82 1.11-12.81 5.96-4.12 1.86 5.47 7.28-0.49 6.67-4.01 1.83-6.05-2.79-9.61-2.47-0.29 3.66 4.09 5.3 4.49 8.86-6.42-5.44-13.27-1.06-19.49 2.32-3.75-5.24-9.18 4.34-12.93 6.59-5.12 6.65-18.21 7.83-15.97 18.38-6.54-5.76-14.76 5.46-17.51 11.42-5.06 0.47-6.19 5.9-4.63 9.99-5.18-7.65-6.48 3.81-5.04 8.48-7.3-1.82-4.5 6.18-6.76 10.64 10.04-1.86-7.2 4.78-0.18 10.6 8.16 3-4.51 11.21-9.13 6.47 2.21 7.61 7.4 13.48 8.75 21.43 0.17 5.66-8.57 1.59-7.37 6.75 5.14-1.74 12.31 4.82 6.95 8.98-4.07 3.49 5.49 3.41 3.15 7.16-2.08 4.12-8.76 0.25-10.22 1.6 12.57 4.93 6.59 23.09 13.57 32.42 3.94-0.69-4.04 8.83 0.95 5.21 7.01-5.41 4.36 5.68 3.53 9.76-3.38-0.01-6.76 0.23-10.05 1.12 4.08-8.17-3.95-14.27-9.44-18.91 2.5-6.37-7.19-8.48-6.22-0.74 8.05 7.08-7.29 4.18-10.97 8.5-6.1-5.87-18.24-0.7-25.94-7.28-11.23-0.81-18.4-10.25-27.86-15.06-2.94-2.52 3.68-4.89 1.47-7.39-18.85-25.16-15.58-58.88-2.34-85.8 21.79-67 92.96-100.12 156.67-113.32 30.56-5.75 62.06-7.05 91.98-16.1 12.61-2.28 25.34-6.37 38.39-6.46 13.89 1.74 26.5-7.09 40.04-8.98 9.66-9.64 30.43-15.42 27.94-31.76-6.24-9.67-12.55-1.07-20.81 0.8 5.01-6.59 11.52-11.78 16.97-17.97 5.7-4 9.66-13.77 17.72-11.73 2.45 1.68 3.5 5.42 7.02 5.4-5.09 9.09-7.09 19.54-10.48 29.32-10.85 10.68-19.21 26.26-35.81 28.37-13.89 2.69-23.89 13.79-38.76 11.08-16.6-0.87-32.48 5.21-48.77 7.31-29.14 9.24-60.27 8.47-90.16 13.96-28.21 10.48-59.32 14.49-83.72 33.34-31.75 16.71-55.76 45.96-66.93 79.98-11.88 24.46-15.15 57.09 2.18 79.61 2.26 16.88 23.36 23.48 36.94 26.74 1.04-45.99 11.93-98.09 50.73-128.42 25.11-16.11 44.54-40.18 73.02-51.02 9.55-2.78 15.97-11.06 24.86-15.11 28.14-15.27 60.39-19.43 90.22-29.82 52.99-14.17 101.13-40.44 147.32-69.67 28.33-23.25 52.35-50.93 75.85-78.87z"/>
<path id="path22" fill="#e2a2c6" d="m578.18 188.11c3.79 29.2-2.3 63.19-10.01 92.95-11.86 28.63-24.05 61.39-52.39 77.68-16.41 13.76-36.2 21.81-55.24 30.99-15.58 3.68-32.36 17.33-51.24 19.5-44.25 13.64-90.1 21.61-132.41 38.66-11.02 6.01-22.31 12.73-30.85 22.19-18.1 29.22-31.93 62.47-31.48 97.25 4.18 17.97 12.55 34.68 24.39 48.72-4.14 4.04-12-1.73-17.51-1.49-7.79-3.55-20.31 1.74-25.8-4.53 7.03-0.33 5.63-5.71-0.46-6.19-3.62-7.09-4.75-15.43-9.82-21.79 2.24-21.33-6.17-41.79-4.81-63.11 6.32-30.08 12.62-62.99 35.39-85.78 7.03 7.7-1.49-9.39 9.73-6.82-1.86-8.97 10.4-7.64 11.76-15.92 11.83-3.41 19.33-16.65 31.71-15.58 20.22-17.45 45.2-17.09 69.32-25.62 11.52 1.59 21.57-10.5 32.28-4.54 4.72-6.62 15.36-16.41 21.38-5.68 5.96-6.66 14.71-8.85 23.23-10.75 17.41-10.91 38.4-12.85 56.27-22.7 1.61-0.92 5.76-1.42 2.48-3.19 22.12-16.11 49.42-26.36 63.88-51.38 11.66-17.58 27.96-35.93 24.37-58.65 2.79-11.2 5.48 7.74 6.81 11.34 9.08-3.18 4.87-16.45 6.22-22.88 4.9 0.94 2.91-3.9 2.81-6.97-0.07-1.9-0.11-3.81-0.01-5.71z"/>
<path id="path24" fill="#dac0d8" d="m560.43 200.57c4.42-5.37 12.02-4.02 17.76-6.75 0.1 3.07 2.09 7.91-2.81 6.97-1.35 6.43 2.86 19.7-6.22 22.88-1.33-3.6-4.02-22.54-6.81-11.34 3.59 22.72-12.71 41.07-24.37 58.65-14.46 25.02-41.76 35.27-63.88 51.38-6.95 0.17-13.83 6.96-20.04 1.61-1.09 3.42 3.85 8.46-3.46 7.08-15.9-1.99-29.86 10.67-42.31 8.52-1.81 4.85-6.61 7.31-7.47 0.6-2.24-8.84-4.8 7.89-8.72 0.73-6.11-6.11-9.03 4.68-10.81 9.08-2.91-1.92-11.86-2.66-14.21 2.88 3.63-9.02-12.64-12.07-4.06-4.97 3.13 6.23-8.64-1.57-3.62 3.88 5.71 9.46-9.12 5.82-13.59 4.42-5.4-2.97-4.01 5.54-4.16 8.68-3.84 1.15-7.53-8.94-6.12-1.27-5.56-2.39-15.48-0.95-14.28 6.92-4.31 3.87-4.75-2.99-5.37-5.98-5.08-1.15-0.29 8.65-5.48 6.94-4.18-0.66-11.82-8.64-12.19 0.59-0.94 3.6-3.53-0.08-4.75-1.51-3.2 0.07-8.03 2.63-5.74-2.59-6.93 1.73-0.78 17.52-7.62 7.17-4.27 9.67-16.52 3.84-19.93 14.43-7.82-9-16.08 6.37-24.51 7.47-1.36 4.51-7.72 6.67-6.08 12.25-3.07-0.13-6-3.58-9.79-2.02 0.52 3.43 6.01 2.21 6.03 5.49-3.08 2.53-11.85 7.22-10.1-0.51-3.13-1.34-12.51-6.16-9.09 3.01 5.67 7.94-5.89 15.38-12.36 18.89 1.27-3.36 2.18-7.15-0.24-10.27-6.65 0.39-0.93 17.37-6.84 11.15 2.87-5.82-1.27-6.22-6.08-4.35 6.36 10.32-9.54 20.83-0.28 30.43 3.38 5.6-2.37 12.95-1.2 3.25-9.37-2.33-5.71 4.46-1.63 9.68-3.54 3.44-4.66-9.02-7.45-4.88 1.94 4.31-1.73 9.32 1.15 13.09 5.27 3.39 2.86-7.18 8.78-3.58-5.37 4.9 1.37 12.43-1.44 18.15-2.65 6.13-6.84 13.05-3.89 19.91 4.25 7.08-2.8 15.07-0.93 22.42 0.94 3.52 7.42 8.96 1.11 10 3.37 9.84-2.92 21.3 3.14 30.42 3.71 5.36 1.19 12.03 1.96 17.98 0.79 5.18 9.81 3.04 8.59 9.03-9.8 1.3-18.39-3.91-25.53-9.89-6.1 4.09-12.93-3.96-17.46-7.47-1.44 2.69-3.38 5.13-6.75 4.95-22.39-8.31-45.13-16.79-65.62-29.01 7.7 6.58 19.84 1.41 25.94 7.28 3.68-4.32 19.02-1.42 10.97-8.5-0.97-7.74 8.72-5.63 6.22 0.74 5.49 4.64 13.52 10.74 9.44 18.91 3.29-0.89 6.67-1.13 10.05-1.12 0.83-4.08 3.48-15.17-3.53-9.76-4.99 3.62 2.99-5.9-0.95-5.21-6.98-9.33-1-27.49-13.57-32.42 1.46-1.35 8.14 2.52 10.22-1.6 2.34-3.75-7.22-3.67-3.15-7.16 5.36-4.16-1.81-10.72-6.95-8.98-1.2-5.16 7.54-1.09 7.37-6.75-1.35-7.95-6.54-13.82-8.75-21.43 4.62 4.74 17.29-3.47 9.13-6.47-7.02-5.82 10.22-12.46 0.18-10.6 2.26-4.46-0.54-12.46 6.76-10.64-1.44-4.67-0.14-16.13 5.04-8.48-1.56-4.09-0.43-9.52 4.63-9.99 2.75-5.96 10.97-17.18 17.51-11.42-2.24-10.55 10.85-11.73 15.97-18.38 3.75-2.25 9.18-11.83 12.93-6.59 6.22-3.38 13.07-7.76 19.49-2.32-0.4-3.56-4.78-5.2-4.49-8.86 3.56-0.32 5.6 4.3 9.61 2.47 5.96 0.61-3.63-4.81 0.49-6.67 2.99-4.85 9.61-1.23 12.81-5.96 7.43 12.8 19.13-5.17 22.06-12.19 3.68-2.38 12.77-3.11 8.56 3.36 2.23 5.96 5.16-7.88 7.59-7.75 6.21 11.62 15.35-6.85 21.26-7.18 4.32 9.58 9.82-13.47 9.73-1.48 3.83 1.06 8.01-8.09 13.53-7.22 3.56-1.08 10.61 2.82 11.36-2.7 15.11-5.8 30.86-12.9 47.46-14.58 3.02 7.67 4.73-4.35 8.6 0.44 4.28 3.39 2.56-4.32 3.37-6.86 3.89 1.31 1 6.87 0.61 9.87 7.82-0.44 8.28-16.08 14.9-7.9 7.73 5.21 5.21-8.64 11.6-6.68-1.58 4.86-2.54 8.75 4.09 8.36-3.01-11.82 13.14-8.35 19.78-12.33 10.53 0.78 22.69-2.98 30.29 0.28 12.67 1.72-6.38-8.17 2.39-7.9 8.57 4.42 8.52-7.24 8.37-12.86 2.37-3.22 3.74 6.24 6.66 3.09 3.84-4.11-6.44-12.01 1.65-10.88 2.3 11.89 11.07-3.1 15.71 5.31 3.75 0.72-0.02-6.57-0.73-9.2 13.92 6.21 20.37-3 32.54-8.93 2.71-4.77 0.88-11.64 5.29-15.74 7.09 3.54 3.4-8.64 9.06-9.69 7.03-1-2.38-13.23 6.56-10.69 16.73-9.26 3.54-28.87 11.11-42.63m8.11-2.26c-11.87 5.64 2.94 7.53 0 0z"/>
<path id="path26" fill="#f2b2d0" d="m568.54 198.31c2.94 7.53-11.87 5.64 0 0z"/>
<path id="path28" fill="#dac1d9" d="m375.91 265.19c6.1-6.34 13.46-2.09 20.2-2.07-5.45 6.19-11.96 11.38-16.97 17.97 8.26-1.87 14.57-10.47 20.81-0.8 2.49 16.34-18.28 22.12-27.94 31.76-13.54 1.89-26.15 10.72-40.04 8.98 19.42-5.99 40.25-12.72 60.25-26.76 1.81-3.27 9.66-11.74 2.89-14.03-20.3 7.78-38.15 22.89-60.23 26.69-8.45-0.64-17.7 3.32-25.52 1.36 7.49-8.9-11.37-3.55-10.58-14.3-0.56 5.44-4.25 8.88-8.16 3.42-4.41-7.73-14.79 2.16-17.87-5.47-9.06-3.08-17.49 2.43-26.36-0.36-6.61 4.16-14.61-9.31-18.6-0.27-16.77 1.33-33.21 3.76-48.31 10.09-9.76 8.48-23.95 7.24-34.31 14.5 2.64-11.83 12.41-20.27 18.01-30.69 1.81-3.41 4.15-7.96 8.75-7.26-1.54 3.14-7.79 9.04 1.41 5.64 24.98-6.24 50.95-7.98 75.99-11.67 42.17 6.69 85.03 1.53 126.58-6.73z"/>
<path id="path30" fill="#eae9fc" d="m586.29 261.01c31.26 10.18 48.81 44.08 57.7 74.03-7.22 2.61 2.85 9.37-0.5 14.16-5.48 7.81-11.97 16.63-21.14 19.92-7.69-4.14-3.97 12.42-12.66 8.34-1.22 1.89 4.19 9.63-2.53 9.41 1.88-9.75-7.66 0.66-13.03-0.67-64.68 32.87-137.72 49.08-197.36 91.58-37 25.06-66.81 68.92-60.33 115.72 0.98 13.94 13.98 22 19.45 33.7-7.07 0.98-14.64 1.16-21.46-1.06-3.52-4.55 3.99-8.13 3.46-13.02-7.5 0.56-4.16 11.45-10.3 13.42-21.65-1.27-43.56-2.56-64.59-8.4-22.16-21.68-41.71-58.93-25.92-90.29 11.25-13.75 7.22-36.41 22.36-47.3 3.92-2.42 2.29-6.55 2.61-10.29 13.4-18.1 37.29-17.85 55.93-27.26 31.75-9.5 64.04-17.52 96.15-25.91 23.74-4.37 42.88-20.42 65.72-27.26 16.25-4.68 29.69-15.04 42.89-25.14 18.61-5.26 30.09-21.04 38.36-37.59 12.08-20.07 20.07-43.49 25.19-66.09z"/>
<path id="path32" fill="#deaacc" d="m133 351.6c1.73-24.61 12.58-49.17 30.18-66.39-5.6 10.42-15.37 18.86-18.01 30.69 10.36-7.26 24.55-6.02 34.31-14.5 15.1-6.33 31.54-8.76 48.31-10.09 3.99-9.04 11.99 4.43 18.6 0.27 8.87 2.79 17.3-2.72 26.36 0.36 3.08 7.63 13.46-2.26 17.87 5.47 3.91 5.46 7.6 2.02 8.16-3.42-0.79 10.75 18.07 5.4 10.58 14.3 7.82 1.96 17.07-2 25.52-1.36-16.74 5.25-39.85 7.63-58.87 13.25-18.72 1.21-36.05 6.65-57.56 7.09-29.22 4.43-57.64 16.69-85.45 24.33z"/>
<path id="path34" fill="#d7b4cf" d="m454.06 323.97c6.21 5.35 13.09-1.44 20.04-1.61 3.28 1.77-0.87 2.27-2.48 3.19-17.87 9.85-38.86 11.79-56.27 22.7-8.52 1.9-17.27 4.09-23.23 10.75-6.02-10.73-16.66-0.94-21.38 5.68-10.71-5.96-20.76 6.13-32.28 4.54-24.12 8.53-49.1 8.17-69.32 25.62-12.38-1.07-19.88 12.17-31.71 15.58-1.36 8.28-13.62 6.95-11.76 15.92-11.22-2.57-2.7 14.52-9.73 6.82-22.77 22.79-29.07 55.7-35.39 85.78-1.36 21.32 7.05 41.78 4.81 63.11 5.07 6.36 6.2 14.7 9.82 21.79 6.09 0.48 7.49 5.86 0.46 6.19-19.58-0.24-40.3-9.92-56.36-15.86 3.37 0.18 5.31-2.26 6.75-4.95 4.53 3.51 11.36 11.56 17.46 7.47 7.14 5.98 15.73 11.19 25.53 9.89 1.22-5.99-7.8-3.85-8.59-9.03-0.77-5.95 1.75-12.62-1.96-17.98-6.06-9.12 0.23-20.58-3.14-30.42 6.31-1.04-0.17-6.48-1.11-10-1.87-7.35 5.18-15.34 0.93-22.42-2.95-6.86 1.24-13.78 3.89-19.91 2.81-5.72-3.93-13.25 1.44-18.15-5.92-3.6-3.51 6.97-8.78 3.58-2.88-3.77 0.79-8.78-1.15-13.09 2.79-4.14 3.91 8.32 7.45 4.88-4.08-5.22-7.74-12.01 1.63-9.68-1.17 9.7 4.58 2.35 1.2-3.25-9.26-9.6 6.64-20.11 0.28-30.43 4.81-1.87 8.95-1.47 6.08 4.35 5.91 6.22 0.19-10.76 6.84-11.15 2.42 3.12 1.51 6.91 0.24 10.27 6.47-3.51 18.03-10.95 12.36-18.89-3.42-9.17 5.96-4.35 9.09-3.01-1.75 7.73 7.02 3.04 10.1 0.51-0.02-3.28-5.51-2.06-6.03-5.49 3.79-1.56 6.72 1.89 9.79 2.02-1.64-5.58 4.72-7.74 6.08-12.25 8.43-1.1 16.69-16.47 24.51-7.47 3.41-10.59 15.66-4.76 19.93-14.43 6.84 10.35 0.69-5.44 7.62-7.17-2.29 5.22 2.54 2.66 5.74 2.59 1.22 1.43 3.81 5.11 4.75 1.51 0.37-9.23 8.01-1.25 12.19-0.59 5.19 1.71 0.4-8.09 5.48-6.94 0.62 2.99 1.06 9.85 5.37 5.98-1.2-7.87 8.72-9.31 14.28-6.92-1.41-7.67 2.28 2.42 6.12 1.27 0.15-3.14-1.24-11.65 4.16-8.68 4.47 1.4 19.3 5.04 13.59-4.42-5.02-5.45 6.75 2.35 3.62-3.88-8.58-7.1 7.69-4.05 4.06 4.97 2.35-5.54 11.3-4.8 14.21-2.88 1.78-4.4 4.7-15.19 10.81-9.08 3.92 7.16 6.48-9.57 8.72-0.73 0.86 6.71 5.66 4.25 7.47-0.6 12.45 2.15 26.41-10.51 42.31-8.52 7.31 1.38 2.37-3.66 3.46-7.08z"/>
<path id="path36" fill="#dfc9e0" d="m643.49 349.2c3.35-4.79-6.72-11.55 0.5-14.16 0.47 6.94 1.63 13.82 2.28 20.75-0.67 2.03-1.43 4.21-3.56 5.09-10.49 1.05-14.93 12.87-18.5 21.22-10.25 12.37-23.91 23.29-36.86 28.88-1.58 2.63 0.17 12.99-4.46 8.2-2.81-8.17-2.93 7.63-9.66 0.98 1.92 3.75-1.91 13.87-3.75 7.33 5.94-10.33-6.75-3.19-4.13 4.77-2.66-2.18-18.33-5.3-18.2 2.47-2.82-10.47-3.04 1.6-0.22 8.03-9.04 3.35-9.07-9.07-7.84-14.77-1.71 8.96-13.46-2.52-6.07 8.06-9.76 2.23-13.59-6.69-20.47-5.47 4.74 4.53-2.17 8.39-2.8 13.39-3.15-4.17 3.12-10.87-5.31-11.31-6.03-3.95-8.32 9.54-15.47 4.08-0.8 4.76-6.27 9.72-6.51 0.85-10.12-1.16 4.48 8.53-1.36 13.4-2.65 8.8-5.19-3.57-5.72-7.71-7.83 0.03-11.34 10.74-17.15 11.93 4.08 9.42-3.1 3.26-2.9-3.58-11-3.68 2.53 11.83-5.95 11.09 1.44-4.91-1.99-4.41-5.72-4.33-2.72-7.19-3.82 1.31-4.75 5.09-10.87-0.23-11.87 16.01-10.79 22.19-10.3 3.78-5.22-8.7-9.86-8.23-0.76 14.6-20.74 13.13-26.85 25.1-5.93 0.05-16.31-5.88-10.09 4.53-4.57 2.12-3.93 8.03-4.47 13-5.06 0.39-0.44-8.08-5.6-6.87-3.5 4.19 5.79 10.1-2.93 9.45 3.65 4.39-2.64 17.91-6.03 8.84-2.69-4.44-0.66 6.63-4.76 3.79-6.88-3.68-0.26 13.44 2.89 8.22 5.23-13.97 8.47 6.07 4.63 11.65-2.88-1.96-2.83-6.02-4.19-8.98-2.42 4.94-3.94 12.2-10.56 12.85 2.94 3.2 10.97 10.8 3.47 12.81-2.45 4.17 1.9 16.91-6.23 12.58 1.57 1.75 1.24 15.12 3.82 7.83 4.02-5.93 4.48 5.86 2.32 8.53-6.91 10.45 2.62 20.48 8.79 28.35l-1.48 0.68c-34.18 0-68.38-1.68-100.79-8.85-14.87-17.3-27.46-37.8-32.23-60.37 0.2-32.74 12.19-65.81 34.08-90.32-0.32 3.74 1.31 7.87-2.61 10.29-15.14 10.89-11.11 33.55-22.36 47.3-15.79 31.36 3.76 68.61 25.92 90.29 21.03 5.84 42.94 7.13 64.59 8.4 6.14-1.97 2.8-12.86 10.3-13.42 0.53 4.89-6.98 8.47-3.46 13.02 6.82 2.22 14.39 2.04 21.46 1.06-5.47-11.7-18.47-19.76-19.45-33.7-6.48-46.8 23.33-90.66 60.33-115.72 59.64-42.5 132.68-58.71 197.36-91.58 5.37 1.33 14.91-9.08 13.03 0.67 6.72 0.22 1.31-7.52 2.53-9.41 8.69 4.08 4.97-12.48 12.66-8.34 9.17-3.29 15.66-12.11 21.14-19.92z"/>
<path id="path38" fill="#d5b2cc" d="m646.27 355.79c1.3 0.82 0.27 2.65 0.49 3.91-2.35 7.59 3.9 17.4-0.7 23.77-8.6-3.43-3.99 5.62-3.15 10.28-4.05 0.92-5.85-3.53-8.44-5.7-0.96 2.51-2.26 9.95 1.02 10.53 7.73-7.92 9.95 10.65 0.71 9.83 0.98-3.51 0.48-10.98-4.55-6.9-7.89 7.6-6.83-3.5-4.92-8.5-6.06 1.83-0.85 9.07-2.53 13.08-3.76 3.57-4.29 11.29-10.95 9.32 0.41 3.55 3.06 8.35-1.84 10.03-7.89 2.61-8.33 11.92-12.94 17.58-7.23-2.34-13.21 7.62-14.16 14.24-7.59-3.18-19.38 7.14-28.27 12.8-3.69 6.32-7.16 0.02-10.01-2.91-3.99 2.92-8.48 4.91-13.05 6.72-3.79 1.29 1.31 7.89-3.73 7.91-1.44-3.5-3.98-7.07-8.56-5.35-6.37 7.09-19.63 3.74-26.91 11.52-4.08-1.28-16.5-4.77-11.86 2.89-4.84-1.77-7.01 3.48-10.36 5.72-16.44-1.04-24.72 16.55-39.48 20.36-4.07 18.99-18.63 30.78-19.94 50.95 11.2 1.9 5.32 10.82-1.36 3.16 4.25 8.68-6.56 22.72 5.02 27.21 4.59 2.87-0.96 12.05 4.9 14.42 3.36-3.82 2.12-9.24 4.32-13.51 7.38 2.34-4.79 19.28 5.96 15.99 8.24 0.21 5.46-13.83 13.02-10.21 1.11 5.51 3.23 10.72 5.2 15.97-28.11 8.63-58.99 5.66-88.21 8.9l1.48-0.68c7.7-2.35 16.07-4.05 23.27-6.8 4.83 5.95 24.96 2.84 13.35-4.57-0.27-9.7-10.46-19.78-4.65-29.14-3.77-10.93-9.85-30.2 0.36-37.36-1.87-1.9-4.75-8.2 0.22-5.25 6.46 5.54 4.13-5.79 1.16-8.34-5.1-7.74 16.3-14.7 7.01-19.58 1.49-2.79 4.6-11.73 6.13-4.67 10.28 1.05 7.35-14.88 16.2-13.1 8.21 4.25 8.54-7.74 15.72-6.74 3.53 0.32 2.37-4.42 3.08-6.69 5.7 1 18.81-1.04 19.85-9.67 4.9 2.07 12.11-1 13.77-9.26 2.45 3.34 5.36 4.28 8.78 1.65-0.33 7.52 11.11 3.31 3.87-1.33 5.74 3.93 12.72-11.29 10.42-0.42 15.05-2.59 24.13-20.8 40.03-16.22 7.04-4.32 13.18-4.42 19.34-9.13 5.18-0.54 6.28-10.49 11.63-6.88 1.88-5.71 6.55-6.87 8.75-0.62 3.03-6.65 13.14-9.88 11.08-17.97 7.44-2.78 5.83-5.16 9.24 1.04 9.05-11.91 19.47-20.87 25.06-34.91 3.31-6.57 5.3-15.27 12.94-18.07 1.77-1.17 6.34-1.5 3.63-4.21 2.13-0.88 2.89-3.06 3.56-5.09z"/>
<path id="path40" fill="#dea2c5" d="m646.06 383.47c4.6-6.37-1.65-16.18 0.7-23.77 10.27 39.59-11.87 80.59-37.44 109.64-32.09 40-86.32 45.18-130.77 64.14-21.32 16.56-37.68 43.72-34.55 71.45-7.56-3.62-4.78 10.42-13.02 10.21-10.75 3.29 1.42-13.65-5.96-15.99-2.2 4.27-0.96 9.69-4.32 13.51-5.86-2.37-0.31-11.55-4.9-14.42-11.58-4.49-0.77-18.53-5.02-27.21 6.68 7.66 12.56-1.26 1.36-3.16 1.31-20.17 15.87-31.96 19.94-50.95 14.76-3.81 23.04-21.4 39.48-20.36 3.35-2.24 5.52-7.49 10.36-5.72-4.64-7.66 7.78-4.17 11.86-2.89 7.28-7.78 20.54-4.43 26.91-11.52 4.58-1.72 7.12 1.85 8.56 5.35 5.04-0.02-0.06-6.62 3.73-7.91 4.57-1.81 9.06-3.8 13.05-6.72 2.85 2.93 6.32 9.23 10.01 2.91 8.89-5.66 20.68-15.98 28.27-12.8 0.95-6.62 6.93-16.58 14.16-14.24 4.61-5.66 5.05-14.97 12.94-17.58 4.9-1.68 2.25-6.48 1.84-10.03 6.66 1.97 7.19-5.75 10.95-9.32 1.68-4.01-3.53-11.25 2.53-13.08-1.91 5-2.97 16.1 4.92 8.5 5.03-4.08 5.53 3.39 4.55 6.9 9.24 0.82 7.02-17.75-0.71-9.83-3.28-0.58-1.98-8.02-1.02-10.53 2.59 2.17 4.39 6.62 8.44 5.7-0.84-4.66-5.45-13.71 3.15-10.28z"/>
<path id="path42" fill="#dbc2da" d="m624.21 382.1c3.57-8.35 8.01-20.17 18.5-21.22 2.71 2.71-1.86 3.04-3.63 4.21-7.64 2.8-9.63 11.5-12.94 18.07-5.59 14.04-16.01 23-25.06 34.91-3.41-6.2-1.8-3.82-9.24-1.04 2.06 8.09-8.05 11.32-11.08 17.97-2.2-6.25-6.87-5.09-8.75 0.62-5.35-3.61-6.45 6.34-11.63 6.88-6.16 4.71-12.3 4.81-19.34 9.13-15.9-4.58-24.98 13.63-40.03 16.22 2.3-10.87-4.68 4.35-10.42 0.42 7.24 4.64-4.2 8.85-3.87 1.33-3.42 2.63-6.33 1.69-8.78-1.65-1.66 8.26-8.87 11.33-13.77 9.26-1.04 8.63-14.15 10.67-19.85 9.67-0.71 2.27 0.45 7.01-3.08 6.69-7.18-1-7.51 10.99-15.72 6.74-8.85-1.78-5.92 14.15-16.2 13.1-1.53-7.06-4.64 1.88-6.13 4.67 9.29 4.88-12.11 11.84-7.01 19.58 2.97 2.55 5.3 13.88-1.16 8.34-4.97-2.95-2.09 3.35-0.22 5.25-10.21 7.16-4.13 26.43-0.36 37.36-5.81 9.36 4.38 19.44 4.65 29.14 11.61 7.41-8.52 10.52-13.35 4.57-7.2 2.75-15.57 4.45-23.27 6.8-6.17-7.87-15.7-17.9-8.79-28.35 2.16-2.67 1.7-14.46-2.32-8.53-2.58 7.29-2.25-6.08-3.82-7.83 8.13 4.33 3.78-8.41 6.23-12.58 7.5-2.01-0.53-9.61-3.47-12.81 6.62-0.65 8.14-7.91 10.56-12.85 1.36 2.96 1.31 7.02 4.19 8.98 3.84-5.58 0.6-25.62-4.63-11.65-3.15 5.22-9.77-11.9-2.89-8.22 4.1 2.84 2.07-8.23 4.76-3.79 3.39 9.07 9.68-4.45 6.03-8.84 8.72 0.65-0.57-5.26 2.93-9.45 5.16-1.21 0.54 7.26 5.6 6.87 0.54-4.97-0.1-10.88 4.47-13-6.22-10.41 4.16-4.48 10.09-4.53 6.11-11.97 26.09-10.5 26.85-25.1 4.64-0.47-0.44 12.01 9.86 8.23-1.08-6.18-0.08-22.42 10.79-22.19 0.93-3.78 2.03-12.28 4.75-5.09 3.73-0.08 7.16-0.58 5.72 4.33 8.48 0.74-5.05-14.77 5.95-11.09-0.2 6.84 6.98 13 2.9 3.58 5.81-1.19 9.32-11.9 17.15-11.93 0.53 4.14 3.07 16.51 5.72 7.71 5.84-4.87-8.76-14.56 1.36-13.4 0.24 8.87 5.71 3.91 6.51-0.85 7.15 5.46 9.44-8.03 15.47-4.08 8.43 0.44 2.16 7.14 5.31 11.31 0.63-5 7.54-8.86 2.8-13.39 6.88-1.22 10.71 7.7 20.47 5.47-7.39-10.58 4.36 0.9 6.07-8.06-1.23 5.7-1.2 18.12 7.84 14.77-2.82-6.43-2.6-18.5 0.22-8.03-0.13-7.77 15.54-4.65 18.2-2.47-2.62-7.96 10.07-15.1 4.13-4.77 1.84 6.54 5.67-3.58 3.75-7.33 6.73 6.65 6.85-9.15 9.66-0.98 4.63 4.79 2.88-5.57 4.46-8.2 12.95-5.59 26.61-16.51 36.86-28.88z"/>
<path id="path44" fill="#e9e7fa" d="m662.44 381.11c12.89-2.44 27.93 2.37 35.83 11.86 0.88 7.37 0.68 14.91-3.08 21.49-1.59 13.37-3.21 28.12-12.26 38.8 0.75 5.8-1.64 7.99-6.79 7.7-9.01 17.35-33.27 22.26-45.9 37.91-9.4 1.56-16.79 9.65-25.7 13.74-1.68 2.51-10.7 3.68-5.79-0.7 21.78-15.35 32.36-41.79 43.05-64.27 0.04-0.39 0.13-1.17 0.17-1.56 11.21-20.04 17.77-42.23 20.47-64.97z"/>
<path id="path46" fill="#ddc5dc" d="m698.27 392.97c7.83 0.79 11.3 9.48 16.59 14.24 8.29 10.19-7.69 9.62-9.25 18.63-1.29 8.11-4.77 4.55-10.44 9.52-0.59 9.42-6.89 17.86-6.24 27.08-4.59 5.34-9.32 16.65-1.34 20.75-0.18 5.05-4.55 2.66-6.83 0.43-3.65 0.82-13.78 10.39-4.69 9.77-1.02 5.42-9.03 0.8-9.42 7.02-0.69-8.55-16.96 5.47-18.24 13-9.85 6.74-16.24 17.43-24.9 18.36-10.53 1.4-12.51 13.42-22.12 15.7-5.14 4.81-7.24 12.22-6.74 19.11-9.75-3.33-0.6 5.22 0.34 9.33-3.66-0.66-6.55-3.19-9.86-4.68 4.12 5.19-3.47 13.29 4.21 15.43 5.54-0.12 6.45-9.53 10.31-11.12 3 4.18 21.93 2.41 10.33 9.53-5.35 5.84 11.83-1.38 5.57 5.58-9.65 3.42-21.67 2.33-29.54 10.59-21.12 2.86-41.86 8.95-63.32 9.35 3.25-2.47 13.55-0.25 10.04-6.39-6.6-11.77-1.49-26.39 5.9-36.6 11.49-18.18 30.4-28.88 45.59-43.43 3.24-3.72 12.22-2.59 11.54-8.99-38.03 13.85-77.76 26.65-116.87 38.54-13.37 16.35-30.56 44.63-10.33 62.55 11.97 2.03 24.01-4.43 36.06-3.18-11.16 4.5-24.45 5.56-36.61 6.72-22.35-19.36-4.27-51.46 9.66-70.08 19.98-18.03 50.28-13.92 72.55-27.6 28.15-12.02 57.24-25.61 75.51-51.41 5.02-7.93 11.09-15.11 16.07-23.08-10.69 22.48-21.27 48.92-43.05 64.27-4.91 4.38 4.11 3.21 5.79 0.7 8.91-4.09 16.3-12.18 25.7-13.74 12.63-15.65 36.89-20.56 45.9-37.91 5.15 0.29 7.54-1.9 6.79-7.7 9.05-10.68 10.67-25.43 12.26-38.8 3.76-6.58 3.96-14.12 3.08-21.49z"/>
<path id="path48" fill="#dcabca" d="m714.86 407.21c2.59 2.05 5.27 4.07 7.22 6.79-3.23 6.79 4.96 9.02 5.84 14.95-7.8 6.4-6.21-9.74-11.84-4.3 0.72 6.16-6.42 15.15 3.08 19.28-4.7 6.87 10.56 12.62 3.02 17.85-0.9 2.46 3.7 5.56 1.7 8.24-8.68 6.35 7.57 19.54-2.48 25.5-13.3 7.75-16.46 25.59-29.69 32.3-3.15 9.91-7.92 18.55-14.64 26.6 0.97 9.65 11.61-6.98 16.07 0.84-11.34-0.33-9.31 8.6-1.25 12.64-2.63 2.53-13.74 0.83-7.92 8.28-18.83 4.57-37.42 10.67-56.27 15.64 8.48-6.51 23.87-5.63 29.01-13.28-19.49-7.39-8.86-33.17 5.08-37.47-9.18-3.05 7.98-4.57 9.55-10.83-2.09-4.51 1.96-8.67-0.08-13.02 6.22 1.67 3 12.38 11.12 10.34-3.36-11.05 11.76-14.49 10.14-25.76 8.15-3.4 5.46 1.87 10.45 4.13 3.1-8.37-0.99-18.21 5.93-25.19-8.03-0.12-4.61-7.53-2.86-12.31 6.67-0.54 8.98-9.68 1.48-10.81 14.66-2.41-3.62-21.41-1.91-31.78 1.56-9.01 17.54-8.44 9.25-18.63z"/>
<path id="path50" fill="#e29ec2" d="m722.08 414c6.65 15.01 20.83 25.39 25.34 41.53 10.73 23.36 20.32 57.7-2.66 76.74-5.22 8.86 15.78 7.39 3.42 12.95-20.35 12.66-42.29 21.78-64.21 30.96-5.82-7.45 5.29-5.75 7.92-8.28-8.06-4.04-10.09-12.97 1.25-12.64-4.46-7.82-15.1 8.81-16.07-0.84 6.72-8.05 11.49-16.69 14.64-26.6 13.23-6.71 16.39-24.55 29.69-32.3 10.05-5.96-6.2-19.15 2.48-25.5 2-2.68-2.6-5.78-1.7-8.24 7.54-5.23-7.72-10.98-3.02-17.85-9.5-4.13-2.36-13.12-3.08-19.28 5.63-5.44 4.04 10.7 11.84 4.3-0.88-5.93-9.07-8.16-5.84-14.95z"/>
<path id="path52" fill="#d6bad3" d="m695.17 435.36c5.67-4.97 9.15-1.41 10.44-9.52-1.71 10.37 16.57 29.37 1.91 31.78 7.5 1.13 5.19 10.27-1.48 10.81-1.75 4.78-5.17 12.19 2.86 12.31-6.92 6.98-2.83 16.82-5.93 25.19-4.99-2.26-2.3-7.53-10.45-4.13 1.62 11.27-13.5 14.71-10.14 25.76-8.12 2.04-4.9-8.67-11.12-10.34 2.04 4.35-2.01 8.51 0.08 13.02-1.57 6.26-18.73 7.78-9.55 10.83-13.94 4.3-24.57 30.08-5.08 37.47-5.14 7.65-20.53 6.77-29.01 13.28-13.51 4.8-27.91 5.75-41.69 9.42 7.87-8.26 19.89-7.17 29.54-10.59 6.26-6.96-10.92 0.26-5.57-5.58 11.6-7.12-7.33-5.35-10.33-9.53-3.86 1.59-4.77 11-10.31 11.12-7.68-2.14-0.09-10.24-4.21-15.43 3.31 1.49 6.2 4.02 9.86 4.68-0.94-4.11-10.09-12.66-0.34-9.33-0.5-6.89 1.6-14.3 6.74-19.11 9.61-2.28 11.59-14.3 22.12-15.7 8.66-0.93 15.05-11.62 24.9-18.36 1.28-7.53 17.55-21.55 18.24-13 0.39-6.22 8.4-1.6 9.42-7.02-9.09 0.62 1.04-8.95 4.69-9.77 2.28 2.23 6.65 4.62 6.83-0.43-7.98-4.1-3.25-15.41 1.34-20.75-0.65-9.22 5.65-17.66 6.24-27.08z"/>
<path id="path54" fill="#ca9cb5" d="m617.62 477.61c6.98-11.39 14.71-22.13 24.35-31.53-0.04 0.39-0.13 1.17-0.17 1.56-4.98 7.97-11.05 15.15-16.07 23.08-18.27 25.8-47.36 39.39-75.51 51.41-22.27 13.68-52.57 9.57-72.55 27.6 7.47-15.28 27.78-14.19 41.7-20.45 19.29-2.45 35.61-13.39 53.19-20.75 17.48-6.13 31.67-18.61 45.06-30.92z"/>
<path id="path56" fill="#e6e6f9" d="m772.49 509.98c6.69-1.89 11.98 1.16 15.64 6.31-6.52 5.59-14.03 9.74-20.19 15.72-3.29 1.25-5.69 0.77-4.18-3.14 3.28-6.12 5.82-12.6 8.73-18.89z"/>
<path id="path58" fill="#eae7f7" d="m478.89 553.72c39.11-11.89 78.84-24.69 116.87-38.54 0.68 6.4-8.3 5.27-11.54 8.99-15.19 14.55-34.1 25.25-45.59 43.43-7.39 10.21-12.5 24.83-5.9 36.6 3.51 6.14-6.79 3.92-10.04 6.39-5.87 1.7-11.94 2.75-18.07 2.5-12.05-1.25-24.09 5.21-36.06 3.18-20.23-17.92-3.04-46.2 10.33-62.55z"/>
<path id="path60" fill="#e6e6f9" d="m10.14 541.14c2.93-7.16 10.89-9.89 15.92-15.22 2.45 5.11 4.91 10.29 6.19 15.83-7.87-5.61-14.28-0.96-22.11-0.61z"/>
<path id="path62" fill="#b1a5ac" d="m744.76 532.27c1.95 12.03 16.7 5.21 19-3.4-1.51 3.91 0.89 4.39 4.18 3.14-6.7 4.24-11.8 11.33-19.76 13.21 12.36-5.56-8.64-4.09-3.42-12.95z"/>
<path id="path64" fill="#dbd9de" d="m756.82 554.9c5.47-2.94 10.5-7.72 16.11-9.82-1.15 5.1-1.16 10.59-3.66 15.28-0.49 0.89-1 1.76-1.53 2.63-2.1-4.19-15.88-2.52-10.92-8.09z"/>
<path id="path66" fill="#d2b281" d="m19.98 552.44c12.09 0.51 21.81 11.4 31.81 15.48-5.65 1.94-5.75 12.88 0.05 16-4.31 2.15-3.5 6.97-3.73 11.01 4.06-6.82 8.97 4.38 6.4 8.41 3.53 11.98 7.43 24.61 11.83 36.3 9.55 4.31 1.6 17.96 11.35 21.88-0.49 8.11 7.37 15.57 3.36 23.22 7.82 6.21 5.14 16.34 5.7 25.08 11.49 1.04 4.89 21.68 13.41 27.14l0.14 0.79c2.2 3.99-12 12.54-2.78 9.09 10.99-4.48-4.42 15.65 5.32 18.41 11.19 24.61 12.75 52.47 23.52 77.37 10.16 20.68 11.53 43.99 19.65 65.34-0.41 15.11 5.12 30.94 10.29 45.51-0.56 13.88 8.9 26.08 20.62 32.24 4.05 8.45 8.3-7.88 15.06-2.7 13.83 1.13 15.66 16.21 27.09 20.69 7.6-3.2 15.87 1.1 23.4-0.7 4.24 5 10.01-4.26 11.96 2.4 11.07 3.1 24.11 9.1 37.09 6.2 0.25 3.9 8.21 2.1 3.93 7.9 1.99 0.8 8.61-8.3 11.93-3.1-4.87 2.2-11.05 19.9-2.96 9.6 8.27-4.1 2.54 0.8 4.99 4.2 4.52 1.3 4.65-9.4 8.18-4.8 2.3 11.6 3.39 0 4.45-5.2 4.31-5.2 1.15 11.1 4.57 5.3-1.87-9.6 8.34 1.6 11.51-4.2 2.93 2.5 6.41 3.4 9.16 0 2.7 4.1-3.43 10.4-6.05 5.4-4.54-6.1-8.21 15.3-10.71 5.9-3.59-2.1-5.16 8.8-1.22 6.6 3.09-6 11.1 11.4 10.33 0.5-9.15-0.1-1.17-6.7 4.06-3.2 4.14-8.5 2.61 6.1 9.12 3.3 6.18 3.8 9.16-10.1 14.39-2.4 8.19-3.9 3.67 5 9.76 6.8-1.38 4.1-3.45 12.6 1.59 13.7 9.46-7.5-1.19-18.3-0.86-27.6 4.54 7.7 7.61-8.2 12.16 0.8 5.84 7.2 4.95-3.8 5.63-7.9 4.9 1.7 13.43 1.1 11.06 8.2 7.95-2.1-0.1 7.2 6.47 9 6.2-5.2 9.26 10.4 1.28 7 1.18 6.9 9.9 6.4 14.77 9.5-7-7.8-18.8-26.3-4.87-30-2.33-6.5 8.19-16.1 10.23-6.3 4.78 5.2 7.36-10.6 12.69-3.8 7.11 5.7 14.54 4.3 14.43 14.2-8.14 2.3-9.91-5.7-17.74-2.5 1.78 8 10.48 2.5 12.69 9 2.47 7.3 14.99-1.5 11.07-7.4 2.23-5.9 13.57 3.1 5.34 4.5-5.96-1.1 0.13 8.6-4.91 6.4-4.73-3.1 1.5 10.7-4.61 5.7-2.73-6.1-9.08 0.5-12.7-4.2-3.95 0.5-0.99 13.2-6.26 8.3 2.56-11.2-11.54 2.8-2.5 6 6.28 10.2 16.54 12 27.97 7.4 4.41 6.9 12.02 0.5 18.32 0.3 21.23 0.3 41.97-5.2 62.96-6.6-13.83 5.7-29.69 4.7-44.42 7.4-25.22 1.8-50.48 6.8-75.81 3.8-14.75 1-25.95-6.8-38.77-1.3-4.43-4.5-9.74-1.2-14.44-0.6 0.91-4.9-1.69-5.4-5.71-3.5 1.71-2.4 2.1-11.1-1.66-7.3 3.76 11-12.52 9.8-14.9 1.1-2.65 1.5-9.66 6.4-8.44-1.4-5.84 7.3-11.31-4.5-14.68-3.4 4.19 12.8-4.82 5.4-10.32 10.1 0.35-3.9-0.89-8.7 1.98-11.7 2.62 5.9 9.87-1.5 3.97-4.1-5.71-2.5-7.83 6.7-11.08 9.9-3.78-2.1-8.22-2.1-12.01-3.9 1.65-6.1 10.09 1.2 11.06-4.9-5.71-2.1-10.93-0.1-7.16-8.1-4.42 1.4-9.29 11.1-11.81 1-3.13 12.8-6.74 2.7-1.92-3.3-9.41-8.1-10.55 5.6-17.04 11.1-5.96-1.7 2.96-9.2-3.18-8.4-9.46-0.8 2.54-20-8.46-16.4-5.75 2.8-2.47-11.7-9.34-7-5.5 2.3-4.52-7.4-9.03-8.8-4.17-1.6-9.56 7.9-6.61-0.2-4.17-0.7-21.28-2.6-13.96 7.6-5.85 7.6-0.2 17.7-5.74 24.3-11.39 0.7-11.26-9.1-7.61-17.1 5.19 2.4 7.89-3.8 8.32-8-3.51-5.3-9.16 11.6-9.14 1.7-2.53-7.8-0.33-20.29-11.93-24.41-7.24-1.83-6.12 7.8-7.29 11.91-4.08-4.98-5.36-12.65 1.11-16.02-7.31 2.06-14.93 3.57-21.77 5.09-15-5.66-12.07-26.25-24.41-34.93 2.47-13.08-0.69-31.6-9.53-42.78 10.21-1.94-2.9-17.39-2.75-5.8-6.59 2.41-9.43-10.06-2.29-9.24 12.85 0.1 0.89-13.66-0.74-19.45 1.12-4.3 0.63-8.77-1.73-12.59-2.81 0.88-1.53 8.58-6.42 6.35-2.14-4.02 7.3-4.42 2.63-7.91-3.8-2.6-3.79-13.29-9.69-9.13 1.87-6.26-7.94-9.06-4.07-15.13 2.66-4.56-3.41-6.38-3.73-9.2 2.68 0.37 4.85-4.03 0.98-2.72-13.39 1.18-5.37-22.27-14.03-23.53 1.13 6.32 0.48 12.82 2 19.09-8.37-7.66-11.11 8.77-15.12 12.45-6.96-8.16-9.81 12.24-14.75-0.39-17.97-95.37-33.73-190.26-49.75-285.72z"/>
<path id="path68" fill="#ddc69c" d="m742.09 563.09c3.85-3.95 10-5.21 14.73-8.19-4.96 5.57 8.82 3.9 10.92 8.09-3.85 6.25-7.58-5.73-12.95-2.12-9.15 5-6.05 18.65-9.5 25.53-11.42 7.97 8.09-2.33 8.64 6.46-4.48 3.65-0.87 8.85-1.37 13.57 9.46-1.46-6.83 10.03 1.23 7.51 5.01-0.92-0.71 7.18-2.01 9.66 3.49 2.75 4.71 15.23-3.53 9.67 1.91 7.99 1.43 15.57 1.7 23.72-5.81 47.71-15.1 96.16-21.25 143.94-7.41 38.13-7.38 77.27-17.2 115.18-1.52-6.28-4.36-18.88-13.4-16.42-0.25 11.81-12.09 21.51-8.51 33.64 3.96 6.19-8.77 8.23-3.99 14.64-4.26 1.51-8.34 3.26-9 8.3-7.89-2.46-14.78 4.28-22.12 5.4-3.79 11.1-13.8-0.94-19.02 4.5 4.15 7.76-8.21 6.52-9.26 12.97-2.52 7.58-10.98 8.04-16.64 12.07 0.32 2.84-1.12 8.89-4.89 5.98 2.64-11.68-13.85-2-13.25-11.05 1.06-8.02-5.42 7.1-8.02 1.44 3-7.59-2.84-6.01-2.75-0.87 0.68-8.55-11.92-4.12-10.63 1.84 3.79 1.47 6.83 6.44 5.3 13.15-4.45-0.9-8.92-0.7-10.31 4.4-8.69 6.6-20.03-1.4-28.87 4.8 2.27-5.1 1.17-11.47-2.18-15.84-9.17 7.94-19.42-5.99-27 6.34-17.86-6.11-21.58 24.3-37.85 19.4-5.36-6.3-10.25-14.1-19.82-13.8-6.69 3.6-14.7 10.7-22.28 4.8-13.75 12.9-33.81-0.1-49.33 6.8-5.13 7.8-14.08 9.2-21.73 14.2 0.42-19.9-27.81-18.2-42.12-14.6-3.36 1.4-4.69-1.4-6.08-4-7.12-8.2-16.55-9.8-25.88-4.9-10.4 4.9-17.04-7-22.05-13.9-5.9 2.69-2.67-5.74 1.74-1.97-0.44-4.9-9.35-2.48-6.43-8.08 2.76-5.02-6.09-3.21-2.82-8.79 4.68-2.91 4.71-10.6 10.64-11.35 1.35-4.87-7-0.72-4.72-7.19 4.4-6.87 3.21-18.88-5.18-22.19 2.91-6.87 12.32-8.45 15.86-12.05-1.34 9.65 10.3-1.8 8.23 8.93 0.23 4.13 7.91-1.17 7.66 4.17-5.09 1.43-2.18 6.22-3.27 10 2.91 8.18 16.41-6.83 11.89 3.58 1.48 2.13 10.59-7.96 11.62-0.58-1.28 9.2 15.18 7.32 3.16 13.26 7.75 6.5-7.97 6.26-3.29 12.48 4.55 2.77 14.38-5.32 11 3.98 7.81-4.8-2.61-16.94 9.08-19.64 3.12 6.89 11.59 10.92 6.83 19.82 2.77-1.45 6.75-4.95 8.75-0.43 1.51 6.49 10.85-0.49 10.67 7.12 5.44-4.22 8.24 5.84 12.69-0.05 1.44 3.82 3.88 7.51 8.12 8.51 4.7-8.69-0.82-19.17 5.14-27.5 2.2-3.4-5.07 1.1-3.99-2.44 2.05-3.77 6.9-7.67 9.69-2.09 2.14-3.88 5.36-1.39 5.79 2.08 5.32 3.68 18.83-0.78 20.2 9.43 7.07 6.69 18.13-3.48 9.03-9.52-1.87-3.48-4.57-6.69-4.77-10.82 5.08-1.11 8.29 15.52 6.84 3.04-3.96-8.03 4.7-0.35 5.97-6.2 1.44-6.51 8.77 3.09 11.36 1.28 0.79-3.95 1.84-14.89 5.67-7.08-5.11 5.69-1.19 12.82-3.49 19.59 7.34 1.57 8.01-7.49 9.8-12.36 8-1.21 6.04 11.29-0.53 11.06 1.66 3.55-1.82 4.73-4.51 2.89 1.97 3.76 3.48 9.18 7.78 10.61 1.47-3.35 1.36-6.83-3.11-5.24 3.13-6.66 11.87 0.48 9.24 6.31 1.48 1.15 13.17-5.7 6.13-8.73-5.61 1.04-8.64-7.39-4.94-11.3-2.06 6.68 15.21 5.36 11.57 1.5-8.25 1.69-7.77-11.75-8.06-16.82 3.17-1.9 3.75 6.22 7.42 2.43 0.74-6.59 2.69-13.69-4.03-17.19 3.57-3.33 3.75-8.43 3.22-13.44 5.03-2.48 5.93-14.34-1.29-9.6 0.68-2.66 5.09-7.38 0.07-7.51-1.61 3.81-3.23 7.79-6.59 10.44 1.26-5.08 2.38-10.41 5.36-14.8 5.45 0.04 4.63 10.79 9.69 6.76-1.36-4.55 2.55-12.06-3.39-14.16-2.76-0.67-3.58-7.38 0.14-5.75 5.58 3.24 6.93-13.33 0.55-10.7-7.61 4.28-6.86-15.58 0.58-6.45 3.47-3.58 0.96-13.75 5.54-18.71-0.2 55.34 0.22 111.91-10.8 165.66 21.1 10.4 16.67-16.45 14.48-29.54-2.71-74.71 6.4-149.11 15.73-223.14 4.81-29.31 14.65-57.99 18.58-87.17 3.88-15.47 10.08-30.46 13.51-45.96-3.83 0.03-7.65 0.08-11.46 0.15 10.04-0.5 22.42-3.46 33.63-4.53-1.95 6.22 10 7.88 13.48 13.31 11.01 15.26 16.32 35.04 12.48 53.7 1.91 37.7-9.05 74.69-17.86 111.18-4.3 22.66-9.01 45.23-13.79 67.8 0.66 27.32-8.26 53.57-5.49 81.04-3.84 14.17-1.06 29.42-6.24 43.33 4.36 15.03 24.33 2.26 31.68-3.96 3.15-10.89 14.55-4.4 20.34-11.34 8.9-1.88 7.5 7.1 7.28 12.58 9.78 1.42 16.83-8.68 26.19-5.66-1.08-4.64-0.87-7.38 4.26-4.7-2-7.97-0.56-18.56 8.52-21.09 3.27-4.31-1.27-7.96-4.84-4.14-0.96-9.77 7.68-1.71 11.88-0.81 2.98-4.6 7.39-9.45 13.32-6.35 1.48-9.57-7.45-14.16-8.86-24.14 5.12 5.69 9.98-1.61 10.58-7.02-6.7 2.59-3.32-4.9-4.16-8.8-0.85-5.96-7.14-8.97-8.78-14.55 6.11 2.21 13.07-13.43 4.99-7.49-8.29-3.86 1.11-19.95-9.57-22.01 2.37-1.84 4.61-6.23 6.93-6.6 4.62 5.37 1.03-5.49 6.36-4.36-2.13-1.4-8.85-5.86-2.98-6.02 5.16 2.01 0.13-13 5.36-6.21 2.39 9.69 5.18 0.65 3.36-4.88-7.82 3.63-8.74-3.63-7.37-9.07 2.38 0.76 4.44 4.43 6.53 4.1 5.18-6.57 1.46 8.59 6.35 5.89 7.82-10.89-11.55-11.67-6.04-20.19 4.82-3.04 1.97 9.46 6.97 7.48 3.83-6.19-5.48-11.84-0.76-18.12-10.17 5.36-9.72-12.99-2.23-14.68-2.87-8.32 1.83-1.62 5.28 0.32-2.44-4.83-1.05-11.95-6.55-14.52-2.84-8.26 14.52-5.24 12.59-12.53-6.89-3.84 1.68-8.94-5.26-13.2 6.48 0.08 9.56-6.08 8.4-11.98-3.71-0.7-7.32 0.72-10.95 1.27 1-4.62 4.01-8.31 6.84-11.93-3.69-2.44-6.5-11.94 0.4-10.26 7.55-0.41 2.19 11.15 6.52 12.29 7.91-4.09 3.12-12.73-3.1-15.94 2.51-3.32 1.9-4.17-2.12-4.32-0.61-3.1-0.04-11.63 4.29-12.55 0.87 3.72 0.33 7.54 0.5 11.32 7.29 1.7 2.12-9 2.77-13.05-10.85-5.94-3.74-21.3-5.24-25.39-8.07-6.1-2.7-12.51-2.02-19.55 5.34-18.86 10.66-37.44 18.12-55.59 0.25-0.54 0.74-1.62 0.99-2.16 5.27-6.05-4.32 10.52 0.74 14.3 5.01 7.67-6.99 5.68-7.55 9.53 5.18 3.35 9.3 6.55 13.61-0.58 0.47 9.26 10.53 0.77 13.43 2.4-4.31 6.98 8.91 5.19 5.87-0.94-5.08-8.86 11.75-8.26 6.88-17.54-5.25-2.76-4.2-8.59-7.04-13.07 8.59 0.64 6 13.88 12.56 14.94 6.51-12.21 12.71-25.18 18.09-38.1-2.61 0.59-5.15 1.4-7.65 2.29m-209.14 66.9c-7.37 16.82-9.71 40.66-8.16 55.89-5.89 4.28 4.28 9.68-4.13 12.86 3.06 5.37 1.4 22.02 13.18 16.53 2.42 10.28-10.36-3.38-8.53 6.38-4.22 6.57-4.25 13.56-0.92 20.94 7.13 2.52 5.34-9.74 11.59-4.91 7.22 2.91-3.97 4.19-0.69 11.5-1.28-8.96-8.9-6.44-8.57 1.59-8.39-5.64-5.87 12.89-8.95 1.69-3.04 3.55-1.49 13.34-0.07 18.73 5.15-2.48-3.05-10.1 3.08-10 1.76 3.68 0.39 7.76 0.27 11.66 5.19 0.5 9.4-14.48 10.06-2.81 0.56 12.47 4.99-9.06 5.64 0.51-5.08 5.49-4.18 16.29-9.81 18.2 2.92 3.45 7.18-1.17 9.76-2.58 4.04 6.68 5.73-1.56 3.57-6 5.6-2.57 13.05 7.34 9.96 13.28 11.09 7.3-3.4-21.96 8.72-15.58 4.22 11.87-0.76-11.5 3.43-12.19 4.05 5.82 6.08-6.13 6.09-9.62 9.56-24.11 7.57-49.76 9.08-74.45-2.44-10.74 3.11-25.45-5.49-34.45-4.04-15.47-26.24-31.32-39.11-17.17m-218.67 370.21c-4.13 3.2-9 16.2-0.21 15.9 10.21 2.5 7.56-15.9 0.21-15.9m54.06 0c-4.49 4.4-6 11.4-12.18 14.2-0.86 8.2 12.84 7.6 17.8 4-1.11-4.9 1.83-18.1-5.62-18.2z"/>
<path id="path70" fill="#d7b98c" d="m754.79 560.87c5.37-3.61 9.1 8.37 12.95 2.12 0.53-0.87 1.04-1.74 1.53-2.63-9.09 31.64-11.29 66.24-19.32 96.63-0.27-8.15 0.21-15.73-1.7-23.72 8.24 5.56 7.02-6.92 3.53-9.67 1.3-2.48 7.02-10.58 2.01-9.66-8.06 2.52 8.23-8.97-1.23-7.51 0.5-4.72-3.11-9.92 1.37-13.57-0.55-8.79-20.06 1.51-8.64-6.46 3.45-6.88 0.35-20.53 9.5-25.53z"/>
<path id="path72" fill="#e7e0e9" d="m742.09 563.09c2.5-0.89 5.04-1.7 7.65-2.29-5.38 12.92-11.58 25.89-18.09 38.1-6.56-1.06-3.97-14.3-12.56-14.94-6.03-2.84-3.88-9.22 1.74-10.78 6.17-2.9 13.83-7.39 21.26-10.09z"/>
<path id="path74" fill="#d5bd97" d="m51.84 583.92c-5.8-3.12-5.7-14.06-0.05-16 2.44 0.66 5.18 1.58 6.21 4.14-1.9-0.77-3.87-1.44-5.93-1.68 2.65 19.56 8.99 38.42 12.71 57.79 13.3 25.11 23.38 52.57 28.61 80.66 2.08 9.49 8.62 18.08 6.77 28.13-8.52-5.46-1.92-26.1-13.41-27.14-0.56-8.74 2.12-18.87-5.7-25.08 4.01-7.65-3.85-15.11-3.36-23.22-9.75-3.92-1.8-17.57-11.35-21.88-4.4-11.69-8.3-24.32-11.83-36.3 2.57-4.03-2.34-15.23-6.4-8.41 0.23-4.04-0.58-8.86 3.73-11.01z"/>
<path id="path76" fill="#e5ddd6" d="m52.07 570.38c2.06 0.24 4.03 0.91 5.93 1.68 5.46 4.48 12.37 6.34 18.31 9.83-1.03 28.33 14.31 53.86 17.09 81.73 17.5 62.57 28.21 126.18 42.51 189.48 0.28 1.58 0.26 3.86-1.82 4.06-15.84-38.13-21.36-79.99-33.79-119.41l-0.14-0.79c1.85-10.05-4.69-18.64-6.77-28.13-5.23-28.09-15.31-55.55-28.61-80.66-3.72-19.37-10.06-38.23-12.71-57.79m3.98 4.69c0.65 19.35 8.66 37.1 11.45 56.13 20.43 29.77 23.74 67.11 36.78 99.93 1.56-27.8-14.07-58.68-17.14-88.31-7.15-14.5-7-32.35-13.22-45.97 6.57-13.51-7.79-19.56-17.87-21.78z"/>
<path id="path78" fill="#d6b888" d="m690.21 585.82c10.15-1.8 20.43-9.04 30.62-12.64-5.62 1.56-7.77 7.94-1.74 10.78 2.84 4.48 1.79 10.31 7.04 13.07 4.87 9.28-11.96 8.68-6.88 17.54 3.04 6.13-10.18 7.92-5.87 0.94-2.9-1.63-12.96 6.86-13.43-2.4-4.31 7.13-8.43 3.93-13.61 0.58 0.56-3.85 12.56-1.86 7.55-9.53-5.06-3.78 4.53-20.35-0.74-14.3-0.16-1.95-0.77-3.75-2.94-4.04z"/>
<path id="path80" fill="#e9e7f2" d="m56.05 575.07c10.08 2.22 24.44 8.27 17.87 21.78 6.22 13.62 6.07 31.47 13.22 45.97 3.07 29.63 18.7 60.51 17.14 88.31-13.04-32.82-16.35-70.16-36.78-99.93-2.79-19.03-10.8-36.78-11.45-56.13z"/>
<path id="path82" fill="#dbc296" d="m76.31 581.89c12.17 4.08 23.96 12.15 35.51 16.08 6.05 45.43 30.01 86.62 44.42 129.89 1.56 14.06 10.95 25.63 13.21 39.51 0.44 2.86 3.52 3.52 5.1 1.1-2.24-19.73-5.07-39.66-9.83-59.14-8.44-16.41-5.92-35.58-12.52-52.53-2.4-7.79-3.05-16.02-3.48-24.12 3.29 5.62 4.14 12.13 6.16 18.23 0.52-3.09 5.74-3.17 6.45-1.19-3.18 5.5 5.71 10.95 0.26 15.63-1.71 8.23 9.07 9.74 7.68 18.12 1.42 3.15 8.36 3.74 8.37 7-7.95 3.92-9.41 21.03 2.57 17.12 11.77 3.26 4.07 17.91 9.71 25.14 5.84 1.67 8.22-2.48 9.04-7.6 2.9 9.38 10.1 0.42 9.6-5.37 5.91 0.4 1.7 8.83-1.4 11.45 4.29 4.76 18 1.21 10.6-6.9-7.19-3.96-0.06-15.66-6.44-15.39 0.98-2.54-0.7-10.24-3.88-6.5-4.53 7.49-27.58 4.77-11.55-4.34 4.66 5.7 8.61-1.37 13.86-2.46 0.52-10.29-11.31-17.11-5.59-27 12.25 39.83 22.87 80.21 32.61 120.55 0.72 2.78-0.63 12.24 5.09 9.26 1.15-13.29-2.73-26.11-5.9-38.81-1.69-36.53-9.51-71.59-15.06-107.75 2.98 18.74 16.35 32.88 16.41 51.69 10.19 0.69 2.2 6.07 4.76 14.24 6.62 0.21 0.17-12.06 7.19-9.17 9.26 3.99-9.3 12.57-0.23 15.28 5.87 0.26 1.03 9.14 7.4 8.55 6.79 0.69 1.6 7.78-2.12 9.17-5.87 6.16 5.79 9.22 3.14 14.91-3.74-1.26-11.56 1.31-4.81 3.41 6.26 1.63 0.01 6.22 1.19 9.9 2.06-2.37 5.27-6.01 8.59-4.16 5.12 3.88-0.94 15.86-5.68 8.6-3.54 8.58 8.39 6.42 3.84 15.2 8.01 6.36-2.48 13.56 3.57 19.36 10.09-6.47 0.31 4.51 3.17 9.62 2.1 3.51-6.24 7.58-4.24 9.57 6.22-8.55 2.44 9.46 9.11 7.35 5.31-0.64-2.58-8.86 4.23-7.33 7.1 11.17-3.36 16.7-8.33 24.78 9.37 5.2-3.34 18.3 5.52 23.49 3.46 2.63 5.18-2.78 8.7 1.25-2.7-3.32-4.21-7.45 1.29-8.45-1.73 4.05 3.67 4.58 5.28 7.55 3.46-3.86 6.97-9.07 11.94-3.95-1.06-4.49 3.74-7.46-0.09-11.45-3.64-7.64 12.69-3.72 7.15-11.37-7.86-7.06-8.66 8.46-14.4 4.08 2.05-4.69-5.69-6.81-0.54-10.12-9.5-1.67 0.95-11.61 0.88-17.73 9.7-0.41 5.14-13.13 2.73-19.26 3.88-9.61-1.43-19.57-1.09-29.42 0.34-9.82-9.15-19.36-3.65-28.6-1.91-1.11-7.49 2.37-8.58-0.08-5.41-8.9 9.34 0.51 4.5-8.4-2.01-6.01-3.82-13.54 0.4-19.1 3.07 22.92 9.34 45.36 13.28 68.2 10.88 4.29 8.31-4.32 8.28-12.8-5.04 0.44-3.68-6.81-4.95-9.74 2.03-39.53-6.7-79.42-0.03-118.75-1.39 10.59 1.95 20.78 4.07 30.99 6.54-1.04-2.5 3.24 2.06 5.98 7.6 3.79-0.8 20.06 9.64 19.26-2.13-7.22 5.83-2.7 9.55-7.28 1.51 6.41-10.09 6.7-4.04 12.83 6.31 5.2 6.26 12.46-0.93 16.9 1.78-9.62-3.61 1.37-6.31-3.44 0.39 7.37 12.13 9.45 17.16 6.07 3.67 7.07 13.84-1.17 12.53-7.55 4.71-11.4-7.38-8.51-13.29-5.07 1.55-5.33 7.17-8.27 8.73-13.73 7.92 6.07 3.28-2.3 1.63-7.13 2.13-5.75 2.82-12.08 2.86-18.14-4.02 2.17-17.67 1.35-16.99-7.63 5.05-0.52 11.33 5.7 15.46 0.75-2.82-10.59-9-19.56-16.8-27.02 18.38 7.72 20.09 30.2 23.48 47.28-0.66 20.17 5.8 39.41 7.05 59.44-1.06 28.41-2.03 57.91 4.29 85.39 5.92-50.73 4.92-103.95 12.4-155.13 11.02-0.61 2.77 8.98 3.97 15.16-3.41 3.32 0.62 12.74-6.2 10.04 1.52 5.82 10.88 7.26 9.08 13.69-3.65 7.98 5.92 16.73-1.45 23.44 1.21 4.37 8.31 16.26-0.43 17.02-3.67 5.26 8.5-2.58 9.44 3.48-9.91-0.02-7.81 24.92 2.22 18.6-1.89 5.15-4.6 14.83 4.45 10.15-2.26 6.03 1 10.47 2.3 15.26-8.11 5.78-4.76-8.56-11.34-6.56-3.11 5.45 6.74 8.09 3.93 13.05-7.61 0.83-2.75 9.18-3.38 14.4 3.66-2.35 3.42-9.36 5.18-13.4 4.83 3.74 5.23-4.27 8.81-6.17 2.92 12.74-11 23.77-5.84 36.45-3.77-4.25-8.75-3.1-7.5 3.61-5.6 0.87-10.6 7.71-3.22 10.57-4.8 9.76-7.56 25.65-2.49 38.64-5.58 1.92-7 6.27-6.68 11.59-1.55-3.87-4.83-3.42-8.31-2.55-1.85-13.36-2.07-26.67-0.76-40.04-3.91 3.11-10.3-1-3.91-3.49 0.66-4.77 1.63-20.46-5.38-13.06 5.02-8.77-3.72-4.88-0.85-11.81-8.28 1.96 4.24 15.37-2.99 15.76-1.2-7.16-6.08-13.18-6.06-20.6 7.37-0.97-6.09-14.53-6.12-6.48-2.47 5.84-6.55-4.97-8.1-6.92-1.6 3.66-2.37 8.85-7.27 9.12 1.05-2.56 2.72-7.21-1.85-6.64-2.81 6.71 6.71 13.1 10.58 6.03 7.8 5.75 3.29 12.9 9.61 19.04-5.85-1.25-7.95-8.64-12.57-11.86-7.12-1.8-13.61 9.31-5.73 13.21 2.85 6.01 6.65 2.19 6.63-2.33 4.57 4.04 6.64 11.62 7.92 17.68-4.07-7.11-12.75-12.59-8.01 0.41-6.85-5.97-16.24 9.07-5.25 10.6-4.63-6.75 3.07-11.38 3.26-2.12 4.63-7.25 6.03 5.84-0.67 4.01-6.24-1.9-2.67 6.22 1.69 2.26 1.39 4.57-9.38 5.56-3.81 8.69 7.83 4.52-8.11 6.43-4.5 12.51 2.43 5.78 6.21 15.38-1.98 18.46-6.62 5.9-10.74-13.1-12.13-2.03-1.75-6.49 5.95-12.66-1.4-17.96-7.23-6.72 1.97 10.89-4.52 7.57-9.03-1.72 0.04-24.49 4.07-12.15 4.76 0.43-5.09-9.92 0.39-14 3.78-5.12-8.13-11.83-5.42-2.91 1.6 4.53-2.99 2.52-5.65 1.97 0.05 3.34 3.24 3.03 5.72 3.4 0.56 4.34-3.77 5.46-7.18 4.78 1.08 4.98 1.5 11.48-4.01 13.93-2.71 5.43-15.16-1.13-8.04-4.85 7.84-4.08 8.31-13.62 9.23-21.35-4.82-0.86-0.76 6.62-5.24 6.66-1.34-11.23-7.97 0.3-8.45 6.69 4.3 1.66 0.39-5.44 5.22-4.38 3.2 7.33-11.81 14.56-2.69 20.17-2.32 6.34-7.15-6.25-9.31 0.36 1.69 7.7 4.28 15.33 4.1 23.31-0.5 5.81 11.32 4.06 9.03-1.69-1.63-3.67-1.38-9.17 4.09-7.77 0.98 4.36 3.77 6.05 7.27 2.81-3.6 5.83 8.37 6.45 5.7 0.59 8.16 2.71-0.67 6.24-4.28 8.13 4.4 4.72 8.94 8.26 6.04 15.89 0.33 8.05 7.6 0.41 4.39-4.03 5.16-0.46 0.35 6.89 4.61 7.68 3.45-0.67 2.4-12.29 8.35-10.33 1.43 3.65 2.24 7.55 3.89 11.14 3.08 1.85 3.44-6.19 7.2-3.8 0.14 5.19-0.52 11.1 4.44 14.4 2.81-2.53 1.02-5.93 0.15-8.88 5.74 1.58 2.76 7.04 2.44 10.21 8.21 0.95-1.27 4.82-0.39 9.68 6.33-3.55 14.58-9.83 10.92-18.51 6.17 0.71 4.74 12.02 4.81 15.12-3.57-3.62-7.01 1.63-2.29 3.14-7.77 1.51-4.21 10.92 2.45 10.57 5.02-2.39 12.81-1.76 15.37-7.2-4.65-5.8-0.99-22.14 3.2-18.54 8.96-2.22 23.66-1.28 30.19 7.5 3.57 1.5 8.02-0.31 11.96-0.29 9.1 6.04-1.96 16.21-9.03 9.52-1.37-10.21-14.88-5.75-20.2-9.43-0.43-3.47-3.65-5.96-5.79-2.08-2.79-5.58-7.64-1.68-9.69 2.09-1.08 3.54 6.19-0.96 3.99 2.44-5.96 8.33-0.44 18.81-5.14 27.5-4.24-1-6.68-4.69-8.12-8.51-4.45 5.89-7.25-4.17-12.69 0.05 0.18-7.61-9.16-0.63-10.67-7.12-2-4.52-5.98-1.02-8.75 0.43 4.76-8.9-3.71-12.93-6.83-19.82-11.69 2.7-1.27 14.84-9.08 19.64 3.38-9.3-6.45-1.21-11-3.98-4.68-6.22 11.04-5.98 3.29-12.48 12.02-5.94-4.44-4.06-3.16-13.26-1.03-7.38-10.14 2.71-11.62 0.58 4.52-10.41-8.98 4.6-11.89-3.58 1.09-3.78-1.82-8.57 3.27-10 0.25-5.34-7.43-0.04-7.66-4.17 2.07-10.73-9.57 0.72-8.23-8.93-3.54 3.6-12.95 5.18-15.86 12.05 8.39 3.31 9.58 15.32 5.18 22.19-2.28 6.47 6.07 2.32 4.72 7.19-5.93 0.75-5.96 8.44-10.64 11.35-3.27 5.58 5.58 3.77 2.82 8.79-2.92 5.6 5.99 3.18 6.43 8.08-4.41-3.77-7.64 4.66-1.74 1.97 5.01 6.9 11.65 18.8 22.05 13.9 9.33-4.9 18.76-3.3 25.88 4.9-5.18-1.8-10.69-3.1-16.23-2.6-12.98 2.9-26.02-3.1-37.09-6.2-1.95-6.66-7.72 2.6-11.96-2.4-7.53 1.8-15.8-2.5-23.4 0.7-11.43-4.48-13.26-19.56-27.09-20.69-6.76-5.18-11.01 11.15-15.06 2.7-11.72-6.16-21.18-18.36-20.62-32.24-5.17-14.57-10.7-30.4-10.29-45.51-8.12-21.35-9.49-44.66-19.65-65.34-10.77-24.9-12.33-52.76-23.52-77.37-9.74-2.76 5.67-22.89-5.32-18.41-9.22 3.45 4.98-5.1 2.78-9.09 12.43 39.42 17.95 81.28 33.79 119.41 2.08-0.2 2.1-2.48 1.82-4.06-14.3-63.3-25.01-126.91-42.51-189.48-2.78-27.87-18.12-53.4-17.09-81.73m43.9 107.38c-4.13 5.01-15.9 10.88-8.2 17.58 7.11 1.71-0.63 9.12 4.78 12.29 4.08 6.34 10.63-10.97 10.91 0.11 0.95 4.63-4.08 2.66-3.77 7.63-12.72-5.44-0.74 19.74 6.28 9.24-0.87 4.28-6.83 7.15-4.54 11.9 1.16 2.99 4.5-4.79 5.39-0.93 1.71 9.45-6.14 4.6-9.1 1.81 2.17 5.1 2.39 11.79 8.73 13.31 3.28 4.4-4.17 6.79-5.52 9.53 4.37 2.72 3.4 8.93 6.72 12.67 1.04 4.65-5 17.41 4.13 13.49-7.45 8.34 7.4 19.9 4.77 26.77 7.47-1.67 1.46 4.69-0.83 7.3 5.18 1.58 0.38 6.8 1.76 9.19 14.78 1.64-3.13 27.95 8.57 25.38 3.04 7.18-3.43 15.08 4.71 19.53-6.76 7.4 1.42 11.96 2.91 18.83 8.7-3.46 14.47 0.37 14.5 9.32-5.72-0.94-7.18 6.07-5.64 10.69 5.38-6.07 8.97 6.57 1.29 4.72-8.95 0.54 2.83 12.84 4.2 5.61 1.23-7.61 13.28 3.23 14.02-3.52-11.16-5.78 6.34-1.48 3.94-9.22 7.97-8.09 3.63-20.25 4.91-30.33-8.4 7.14-16.58-10.13-8.95-13.94 5.5 0.23 3.09 8.75 7.68 9.74 2.84-4.08 2.3-12.34-2.04-14.8-5.9-0.84 1.13-11.88-6.19-9.41-8.11 5.22-1.93-17 0.41-4.61 12.99-6.92-8.3-18.78-0.18-26.26-0.81-11.56-5.63-21.55-12.27-31.62 1.22-6.43-0.04-13.22-2.39-19.23-14.97 0.29 2.72-28.33-16.18-27.03 4.83-6.25-7.44-7.55-5.02-14.91 1.68-13.68-12.67-0.41-12.66-6.5 8.28-2.57 4.74-12.89 4.86-19.18 5.19-2.34 2.13-10.86-2.61-5.76-0.42 9.17-3.26-2.31-6.66-3.69 5.32-8.32-9.04-4.09-4.17 3.08-8.34-3.28-4.58-16.04-8.55-18.78m90.98 278.73c-2.92 10.37-5.49 32.7 10.69 32.7 3.83-10.21-4.37-18.68-6.23-28.27 0.79-2.69-1.81-5.12-4.46-4.43z"/>
<path id="path84" fill="#eae8f2" d="m649.65 598.7c12.57-4.95 26.66-8.32 40.56-12.88 2.17 0.29 2.78 2.09 2.94 4.04-0.25 0.54-0.74 1.62-0.99 2.16-13.01 16.95-12.4 39.74-21.6 58.58-27.42 101.29-44.8 206.34-45.32 311.51-0.22 0.56-0.65 1.67-0.87 2.23-6.55 2.34-15.07 7.26-21.22 4.65 10.19-30.06 9.7-62.5 12.92-93.85 5.65-45.66 9.92-91.49 17.47-136.89 7.92-45.92 20.22-92.51 16.11-139.55z"/>
<path id="path86" fill="#e5d3b6" d="m670.56 650.6c9.2-18.84 8.59-41.63 21.6-58.58-7.46 18.15-12.78 36.73-18.12 55.59-9.66 28.33-12.64 58.75-22.13 87.39-4.49 3.22 4.58 11.52-1.47 9.24-6.27 55.94-20.43 111.39-20 167.91 5.41 2.5 3.06 7.89-2.01 8.82-0.06 13.65 0.7 28.05-3.19 41.14 0.52-105.17 17.9-210.22 45.32-311.51z"/>
<path id="path88" fill="#e2d2b9" d="m156.24 727.86c-14.41-43.27-38.37-84.46-44.42-129.89 4.26 0.95 11.44 0.55 14.15 4.13-4.39-0.06-14.04-6.62-12.41 1.62 13.34 47.76 35.71 92.4 49.9 139.73 0.55 3.14 5.41 7.1 5.15 1.55-8.21-39.21-18.77-77.65-22.66-117.59-0.41-1.54 0.74-2.52 1.67-3.51 0.35 2.88 0.73 5.86 1.1 8.78 0.43 8.1 1.08 16.33 3.48 24.12 6.6 16.95 4.08 36.12 12.52 52.53 4.76 19.48 7.59 39.41 9.83 59.14-1.58 2.42-4.66 1.76-5.1-1.1-2.26-13.88-11.65-25.45-13.21-39.51z"/>
<path id="path90" fill="#e8e6f1" d="m113.56 603.72c-1.63-8.24 8.02-1.68 12.41-1.62 9.01 1.9 16.64 7.67 25.28 10.72 9.65 2.81 0.04 7.24-3.63 11.08-0.93 0.99-2.08 1.97-1.67 3.51 3.89 39.94 14.45 78.38 22.66 117.59 0.26 5.55-4.6 1.59-5.15-1.55-14.19-47.33-36.56-91.97-49.9-139.73z"/>
<path id="path92" fill="#e3d3b9" d="m645.8 600.17c0.75-1.33 2.56-1.12 3.85-1.47 4.11 47.04-8.19 93.63-16.11 139.55-7.55 45.4-11.82 91.23-17.47 136.89-3.22 31.35-2.73 63.79-12.92 93.85 6.15 2.61 14.67-2.31 21.22-4.65-2.68 7.71-11.58 7.07-17.71 9.54-4.68 4.82-13.73-3.99-6.95-8.12 12.43-25.05 9.99-54.31 12.92-81.5 8.46-66.75 13.97-134.08 28.85-199.6-0.13-19.76 8.35-38.81 6.49-58.77 1.19-8.69-0.09-17.29-2.17-25.72z"/>
<path id="path94" fill="#dbc194" d="m603.39 609.2c13.07-2.78 29.08-5.01 42.41-9.03 2.08 8.43 3.36 17.03 2.17 25.72 0.01 5.66-1.1 11.49-7.01 7.04 3.87 9.07-0.93 18.15-1.4 27.44-0.58 7.46-9.84 1.89-13.65 7 1.99 3.32 5.26 6.14 5.85 10.14-5.76-0.69-12.08 2.93-5.78 7.95 11.42-3.29-1 7.56 3.63 12.82-4.08 5.49-19.6 6.85-14.04 17.13-2.6-9.9-8.2-7.19-10.61 0.62 0.25-10.71-11.75-6.12-9.74-17.21 3.82-3.66 3.17 8.03 8.37 6.32-2.69-4.28 2.41-9.14-1.9-12.72-6.86-7.09 4.29-12.71 7.97-18-6.91 6.24-11.4-11.91-3.38-7.76-6.75-17.6 7.4-35.64 3.8-52.35 0.22-4.17-1.47-6.97-6.69-5.11z"/>
<path id="path96" fill="#e9e7f4" d="m553.8 619.41c16.85-1.28 32.56-9.37 49.59-10.21 5.22-1.86 6.91 0.94 6.69 5.11-0.89 1.72-1.7 3.48-2.35 5.32-0.63 1.21-1.31 2.41-1.86 3.68-10.3 30.73-15.96 62.83-23.31 94.27-3.89-6.44 5.87-22.48-2.8-31.16 3.84-18.66-1.47-38.44-12.48-53.7-3.48-5.43-15.43-7.09-13.48-13.31z"/>
<path id="path98" fill="#d8ba8a" d="m151.25 612.82c13.15 5.3 30.8 7.53 42.38 10.04-7.63-2.16-6.15 4.71-2.01 6.73 4.9 12.88 7.95 26.06 12.54 39.03-5.72 9.89 6.11 16.71 5.59 27-5.25 1.09-9.2 8.16-13.86 2.46-16.03 9.11 7.02 11.83 11.55 4.34 3.18-3.74 4.86 3.96 3.88 6.5 6.38-0.27-0.75 11.43 6.44 15.39 7.4 8.11-6.31 11.66-10.6 6.9 3.1-2.62 7.31-11.05 1.4-11.45 0.5 5.79-6.7 14.75-9.6 5.37-0.82 5.12-3.2 9.27-9.04 7.6-5.64-7.23 2.06-21.88-9.71-25.14-11.98 3.91-10.52-13.2-2.57-17.12-0.01-3.26-6.95-3.85-8.37-7 1.39-8.38-9.39-9.89-7.68-18.12 5.45-4.68-3.44-10.13-0.26-15.63-0.71-1.98-5.93-1.9-6.45 1.19-2.02-6.1-2.87-12.61-6.16-18.23-0.37-2.92-0.75-5.9-1.1-8.78 3.67-3.84 13.28-8.27 3.63-11.08z"/>
<path id="path100" fill="#e0c9a1" d="m607.73 619.63c0.65-1.84 1.46-3.6 2.35-5.32 3.6 16.71-10.55 34.75-3.8 52.35-8.02-4.15-3.53 14 3.38 7.76-3.68 5.29-14.83 10.91-7.97 18 4.31 3.58-0.79 8.44 1.9 12.72-5.2 1.71-4.55-9.98-8.37-6.32-2.01 11.09 9.99 6.5 9.74 17.21 2.41-7.81 8.01-10.52 10.61-0.62-5.56-10.28 9.96-11.64 14.04-17.13-4.63-5.26 7.79-16.11-3.63-12.82-6.3-5.02 0.02-8.64 5.78-7.95-0.59-4-3.86-6.82-5.85-10.14 3.81-5.11 13.07 0.46 13.65-7 0.47-9.29 5.27-18.37 1.4-27.44 5.91 4.45 7.02-1.38 7.01-7.04 1.86 19.96-6.62 39.01-6.49 58.77-14.88 65.52-20.39 132.85-28.85 199.6-2.93 27.19-0.49 56.45-12.92 81.5-6.78 4.13 2.27 12.94 6.95 8.12 6.13-2.47 15.03-1.83 17.71-9.54 0.22-0.56 0.65-1.67 0.87-2.23 3.89-13.09 3.13-27.49 3.19-41.14 5.07-0.93 7.42-6.32 2.01-8.82-0.43-56.52 13.73-111.97 20-167.91 6.05 2.28-3.02-6.02 1.47-9.24 9.49-28.64 12.47-59.06 22.13-87.39-0.68 7.04-6.05 13.45 2.02 19.55 1.5 4.09-5.61 19.45 5.24 25.39-0.65 4.05 4.52 14.75-2.77 13.05-0.17-3.78 0.37-7.6-0.5-11.32-4.33 0.92-4.9 9.45-4.29 12.55 4.02 0.15 4.63 1 2.12 4.32 6.22 3.21 11.01 11.85 3.1 15.94-4.33-1.14 1.03-12.7-6.52-12.29-6.9-1.68-4.09 7.82-0.4 10.26-2.83 3.62-5.84 7.31-6.84 11.93 3.63-0.55 7.24-1.97 10.95-1.27 1.16 5.9-1.92 12.06-8.4 11.98 6.94 4.26-1.63 9.36 5.26 13.2 1.93 7.29-15.43 4.27-12.59 12.53 5.5 2.57 4.11 9.69 6.55 14.52-3.45-1.94-8.15-8.64-5.28-0.32-7.49 1.69-7.94 20.04 2.23 14.68-4.72 6.28 4.59 11.93 0.76 18.12-5 1.98-2.15-10.52-6.97-7.48-5.51 8.52 13.86 9.3 6.04 20.19-4.89 2.7-1.17-12.46-6.35-5.89-2.09 0.33-4.15-3.34-6.53-4.1-1.37 5.44-0.45 12.7 7.37 9.07 1.82 5.53-0.97 14.57-3.36 4.88-5.23-6.79-0.2 8.22-5.36 6.21-5.87 0.16 0.85 4.62 2.98 6.02-5.33-1.13-1.74 9.73-6.36 4.36-2.32 0.37-4.56 4.76-6.93 6.6 10.68 2.06 1.28 18.15 9.57 22.01 8.08-5.94 1.12 9.7-4.99 7.49 1.64 5.58 7.93 8.59 8.78 14.55 0.84 3.9-2.54 11.39 4.16 8.8-0.6 5.41-5.46 12.71-10.58 7.02 1.41 9.98 10.34 14.57 8.86 24.14-5.93-3.1-10.34 1.75-13.32 6.35-4.2-0.9-12.84-8.96-11.88 0.81 3.57-3.82 8.11-0.17 4.84 4.14-9.08 2.53-10.52 13.12-8.52 21.09-5.13-2.68-5.34 0.06-4.26 4.7-9.36-3.02-16.41 7.08-26.19 5.66 0.22-5.48 1.62-14.46-7.28-12.58-5.79 6.94-17.19 0.45-20.34 11.34-9.02-90.39 4.99-180.68 19.41-270.31 4.36-32.5 15.87-63.48 20.26-95.87z"/>
<path id="path102" fill="#e2d2b4" d="m605.87 623.31c0.55-1.27 1.23-2.47 1.86-3.68-4.39 32.39-15.9 63.37-20.26 95.87-14.42 89.63-28.43 179.92-19.41 270.31-7.35 6.22-27.32 18.99-31.68 3.96 5.18-13.91 2.4-29.16 6.24-43.33-2.77-27.47 6.15-53.72 5.49-81.04 4.78-22.57 9.49-45.14 13.79-67.8 1.59 17-6.6 32.99-7.66 49.77-4.58 20.09-4.25 40.58-6.29 61.09-5.76 27.83-2.05 56.53-7.68 84.25 7.92 0.98 20.08-2.09 26.56-8.31-5.75-35.67-5.77-72.06-2.09-107.93 4.99-85.43 20.56-170.22 41.13-253.16z"/>
<path id="path104" fill="#e4d3ba" d="m191.62 629.59c-4.14-2.02-5.62-8.89 2.01-6.73 4.63 2.75 11.94 0.39 15.39 3.22-5.36-0.12-10.7-0.53-16.01-1.18 13.77 29.63 15.22 62.88 28.28 92.77 5.7 10.36 3.4 23.11 10.24 33.07-0.91-35.79-8.56-71-13.6-106.3 2.26-9.39 14.82-13.1 16.89-15.6 9.77 1.38 21.89 2.61 30.03 5.15-2.49-0.47-15.42-0.99-8.36 2.49 26.42 13.66 20.48 47.26 31.72 70.38 2.39 18.11 6 37.69 11.76 54.05 4.46-38.27-4.1-77.4 3.26-115.53 1.51-3.15 4.47-7.35-1.19-7.22 12.11-3.21 6.04 5.17 2.67 10.03-6.67 39.33 2.06 79.22 0.03 118.75 1.27 2.93-0.09 10.18 4.95 9.74 0.03 8.48 2.6 17.09-8.28 12.8-3.94-22.84-10.21-45.28-13.28-68.2-2.24-19.76-9.81-38.9-13.98-58.47-3.67-14.21-16.55-23.16-29.39-28.59-10.64-3.22-29.53 3.62-23.86 17.65 5.55 36.16 13.37 71.22 15.06 107.75 3.17 12.7 7.05 25.52 5.9 38.81-5.72 2.98-4.37-6.48-5.09-9.26-9.74-40.34-20.36-80.72-32.61-120.55-4.59-12.97-7.64-26.15-12.54-39.03z"/>
<path id="path106" fill="#e8e0d6" d="m582.56 717.58c7.35-31.44 13.01-63.54 23.31-94.27-20.57 82.94-36.14 167.73-41.13 253.16-3.68 35.87-3.66 72.26 2.09 107.93-6.48 6.22-18.64 9.29-26.56 8.31 5.63-27.72 1.92-56.42 7.68-84.25-1.75 27.28-0.39 55.9-6.21 82.43 7.65-0.49 17-1.8 22.81-6.63-8.84-75.32 0.26-151.63 11.48-226.27-4.64 0.61-3.13 5.9-4.15 9.12-6.35 26.62-8.7 54.18-17.64 80.26 1.06-16.78 9.25-32.77 7.66-49.77 8.81-36.49 19.77-73.48 17.86-111.18 8.67 8.68-1.09 24.72 2.8 31.16z"/>
<path id="path108" fill="#e9e6f1" d="m478.01 630.8c12.21-4.12 28.37-4.26 42.16-6.86 3.81-0.07 7.63-0.12 11.46-0.15-3.43 15.5-9.63 30.49-13.51 45.96-20.65 66.56-27.92 136.02-34.24 205.07-5.98-23.22 3.14-52.62 0.75-77.75 7.27-45.81 15.02-91.96 14.15-138.47-1.54-12.49-17.31-22.08-20.77-27.8z"/>
<path id="path110" fill="#d6b786" d="m532.95 629.99c12.87-14.15 35.07 1.7 39.11 17.17-4.87 4.3 4.67 17.97-3.48 14.26-3.38-4.93-16.14 4.59-5.65 3.72 7.75 3.45-0.27 8.03-3.36 11.39 5.06 2.25 6.37-4.26 10.26-5.31-5.25 7.72 3.8 16.59-0.76 24.7-2.39-7.72-9.21-5.23-13.65-0.65-0.01 7.71 11.26 0.31 12.24 6.56 0.43 4.73-6.5-2.19-5.28 1.82-1.44 5.93 6.95 5.95 6.41 11.27-4.73-0.13-12.68-6.42-14.28 0.47-2.71 4.59-16.38 0.41-9.99-4.69-0.95-3.04-8.96-2.8-6.99-7.28 5.31 0.86 8.31 0.16 6.9-5.84 11.31-1.84-3.26-1.22 0.38-10.82-14.54 7.24 1.98-13.32-9.42-14.26 1.12-2.45 10.06-3.05 7.24-8.73-18.15 0.8-12.51-22.99-9.68-33.78z"/>
<path id="path112" fill="#e9e5ee" d="m193.01 624.9c5.31 0.65 10.65 1.06 16.01 1.18 8.56-1.19 18.68 1.1 25.8 2.76-2.07 2.5-14.63 6.21-16.89 15.6 5.04 35.3 12.69 70.51 13.6 106.3-6.84-9.96-4.54-22.71-10.24-33.07-13.06-29.89-14.51-63.14-28.28-92.77z"/>
<path id="path114" fill="#dabe90" d="m524.79 685.88c-1.55-15.23 0.79-39.07 8.16-55.89-2.83 10.79-8.47 34.58 9.68 33.78 2.82 5.68-6.12 6.28-7.24 8.73 11.4 0.94-5.12 21.5 9.42 14.26-3.64 9.6 10.93 8.98-0.38 10.82 1.41 6-1.59 6.7-6.9 5.84-1.97 4.48 6.04 4.24 6.99 7.28-6.39 5.1 7.28 9.28 9.99 4.69 1.6-6.89 9.55-0.6 14.28-0.47 0.54-5.32-7.85-5.34-6.41-11.27-1.22-4.01 5.71 2.91 5.28-1.82-0.98-6.25-12.25 1.15-12.24-6.56 4.44-4.58 11.26-7.07 13.65 0.65 4.56-8.11-4.49-16.98 0.76-24.7-3.89 1.05-5.2 7.56-10.26 5.31 3.09-3.36 11.11-7.94 3.36-11.39-10.49 0.87 2.27-8.65 5.65-3.72 8.15 3.71-1.39-9.96 3.48-14.26 8.6 9 3.05 23.71 5.49 34.45-1.51 24.69 0.48 50.34-9.08 74.45-0.01 3.49-2.04 15.44-6.09 9.62-4.19 0.69 0.79 24.06-3.43 12.19-12.12-6.38 2.37 22.88-8.72 15.58 3.09-5.94-4.36-15.85-9.96-13.28 2.16 4.44 0.47 12.68-3.57 6-2.58 1.41-6.84 6.03-9.76 2.58 5.63-1.91 4.73-12.71 9.81-18.2-0.65-9.57-5.08 11.96-5.64-0.51-0.66-11.67-4.87 3.31-10.06 2.81 0.12-3.9 1.49-7.98-0.27-11.66-6.13-0.1 2.07 7.52-3.08 10-1.42-5.39-2.97-15.18 0.07-18.73 3.08 11.2 0.56-7.33 8.95-1.69-0.33-8.03 7.29-10.55 8.57-1.59-3.28-7.31 7.91-8.59 0.69-11.5-6.25-4.83-4.46 7.43-11.59 4.91-3.33-7.38-3.3-14.37 0.92-20.94-1.83-9.76 10.95 3.9 8.53-6.38-11.78 5.49-10.12-11.16-13.18-16.53 8.41-3.18-1.76-8.58 4.13-12.86z"/>
<path id="path116" fill="#e7d7c1" d="m464.34 632.11c2.14-2.45 9.3-0.59 13.67-1.31 3.46 5.72 19.23 15.31 20.77 27.8 0.87 46.51-6.88 92.66-14.15 138.47 2.39 25.13-6.73 54.53-0.75 77.75 6.32-69.05 13.59-138.51 34.24-205.07-3.93 29.18-13.77 57.86-18.58 87.17-9.33 74.03-18.44 148.43-15.73 223.14 2.19 13.09 6.62 39.94-14.48 29.54 11.02-53.75 10.6-110.32 10.8-165.66 0.85-56.44 14.22-111.8 15.96-168.12 2.38-10.51 1.57-26.23-9.81-31.07l-0.29-0.7c-2.59-8.59-13.48-12.35-21.65-11.94m14.82 334.83c-4.43 13.05-2.68 27.3-8.12 40.06 2.28 4.5 9.43 2.1 12.76-0.3-0.87-13.29-1.45-28.81-4.64-39.76z"/>
<path id="path118" fill="#ddc69c" d="m448.5 636.25c2.34-3.67 10.96-3.17 15.84-4.14 8.17-0.41 19.06 3.35 21.65 11.94-9.59-10.54-25.98-10.84-36.23-1.45-12.67 11.45-4.49 29.73-5.17 43.98 2.75 5.86-0.36 5.81-4.7 2.54 1.72 5.64 7.39 12.24-0.79 16.03 6.41 3.43 8.76 16.67-1.46 16.98-0.08 10.32 1.34 20.87 1.2 28.59-8.96-4.42-12.2-17.3-11.66-27.11-3.55-4.45-2.67 1.88-1.76 4.55-8.62 2.59 0.21-5.36-4.87-6.35 4.15-6.07-11.79-24.21 1.26-18.05 3.2-3.59-4.42-6.45-6.11-9.54-2.02-8.31 5.9-17.63-2.01-24.3-6.11-4.76 1.35-13.67-5.22-17.21 3.21-4.97-3.11-12.61 1.82-15.49 3.54 11.2 3.38 23.39 8.6 34.06 4.37 10.48 1.02 24.49 9.09 33.09 6.59-13.64 8.81-29.77 11.75-44.73 1.22-8.55 3.75-17.95 12.4-21.64 2.32-2.43-2.03-2-3.63-1.75z"/>
<path id="path120" fill="#d9bd8e" d="m220.9 651.87c-5.67-14.03 13.22-20.87 23.86-17.65 12.84 5.43 25.72 14.38 29.39 28.59 4.17 19.57 11.74 38.71 13.98 58.47-4.22 5.56-2.41 13.09-0.4 19.1 4.84 8.91-9.91-0.5-4.5 8.4 1.09 2.45 6.67-1.03 8.58 0.08-5.5 9.24 3.99 18.78 3.65 28.6-0.34 9.85 4.97 19.81 1.09 29.42 2.41 6.13 6.97 18.85-2.73 19.26 0.07 6.12-10.38 16.06-0.88 17.73-5.15 3.31 2.59 5.43 0.54 10.12 5.74 4.38 6.54-11.14 14.4-4.08 5.54 7.65-10.79 3.73-7.15 11.37 3.83 3.99-0.97 6.96 0.09 11.45-4.97-5.12-8.48 0.09-11.94 3.95-1.61-2.97-7.01-3.5-5.28-7.55-5.5 1-3.99 5.13-1.29 8.45-3.52-4.03-5.24 1.38-8.7-1.25-8.86-5.19 3.85-18.29-5.52-23.49 4.97-8.08 15.43-13.61 8.33-24.78-6.81-1.53 1.08 6.69-4.23 7.33-6.67 2.11-2.89-15.9-9.11-7.35-2-1.99 6.34-6.06 4.24-9.57-2.86-5.11 6.92-16.09-3.17-9.62-6.05-5.8 4.44-13-3.57-19.36 4.55-8.78-7.38-6.62-3.84-15.2 4.74 7.26 10.8-4.72 5.68-8.6-3.32-1.85-6.53 1.79-8.59 4.16-1.18-3.68 5.07-8.27-1.19-9.9-6.75-2.1 1.07-4.67 4.81-3.41 2.65-5.69-9.01-8.75-3.14-14.91 3.72-1.39 8.91-8.48 2.12-9.17-6.37 0.59-1.53-8.29-7.4-8.55-9.07-2.71 9.49-11.29 0.23-15.28-7.02-2.89-0.57 9.38-7.19 9.17-2.56-8.17 5.43-13.55-4.76-14.24-0.06-18.81-13.43-32.95-16.41-51.69m21.18-15.29c-9.17-0.57-24.73 3.55-18.66 15.72 13.09 1.39 3.65 22.2 16.11 26.3 8.5-9.22 10.17 13.95 13.55 1.74 2.29 4.68 2.68-2 7 1.54-2.48-4.15-6.34-5.26 0.07-6.75 6.74-8.17 3.23 11.24 8.71 5.49 1.97-5.58-4.16-7.66-4.86-12.63-1.68 7.06-12.44-2.85-5.01-3.95 6.75 0.23 0.15-11.98 9.68-7.23-6.02-7.92-14.13-18.32-26.59-20.23z"/>
<path id="path122" fill="#e9e7f3" d="m256.49 636.48c-7.06-3.48 5.87-2.96 8.36-2.49 10.62 1.44 21.53 0.86 32 3.24 1.71 0.38 3.45 0.68 5.19 0.93 5.66-0.13 2.7 4.07 1.19 7.22-7.36 38.13 1.2 77.26-3.26 115.53-5.76-16.36-9.37-35.94-11.76-54.05-11.24-23.12-5.3-56.72-31.72-70.38z"/>
<path id="path124" fill="#d4b381" d="m449.76 642.6c10.25-9.39 26.64-9.09 36.23 1.45l0.29 0.7c9.66 13.46-7.1 20.41-9.21 33.01 9.95-0.5 2.99 11.41 1.06 15.86 6.25 3.34 2.92 13.3 9.76 14.54-0.08 3.51-3.09 18.64-3.9 10.37-8.27 10.86-4.73-9.16-14.51-10.55 2.37 3.97-0.42 13.23-5.69 8.37-5.51-4.78 6.74-10.01 0.65-13.91-0.68-4.84 10.89 5.93 5.67-0.6-5.38-5.14 11-4.89 5.2-6.51-6.28 1.88 3.5-9.01-2.42-7.81-5.12 0.9-3.53-8.96-9.09-6.8-3.99 0.08-16.58 0.78-8.41-4.2-1.51-5.45 1.33-15.93-6.93-14.14-4.48-4.77-3.26-14.62 1.3-19.78z"/>
<path id="path126" fill="#d3b280" d="m242.08 636.58c12.46 1.91 20.57 12.31 26.59 20.23-9.53-4.75-2.93 7.46-9.68 7.23-7.43 1.1 3.33 11.01 5.01 3.95 0.7 4.97 6.83 7.05 4.86 12.63-5.48 5.75-1.97-13.66-8.71-5.49-6.41 1.49-2.55 2.6-0.07 6.75-4.32-3.54-4.71 3.14-7-1.54-3.38 12.21-5.05-10.96-13.55-1.74-12.46-4.1-3.02-24.91-16.11-26.3-6.07-12.17 9.49-16.29 18.66-15.72z"/>
<path id="path128" fill="#e9e6f3" d="m435.72 637c4.03-1.52 8.56 0.05 12.78-0.75 1.6-0.25 5.95-0.68 3.63 1.75-8.65 3.69-11.18 13.09-12.4 21.64-5.55 10.9-6.35 26.55-11.76 36.06-5.83-17.28-10.1-37.54-14.02-56.28 6.74-2.94 15.18 1.04 21.77-2.42z"/>
<path id="path130" fill="#d7b887" d="m296.85 637.23c16.06-1.21 31.15 5.24 47.47 2.92l-0.61 0.75c-3.15 1.81-16.81-3.62-13.67 3.08 7.8 7.46 13.98 16.43 16.8 27.02-4.13 4.95-10.41-1.27-15.46-0.75-0.68 8.98 12.97 9.8 16.99 7.63-0.04 6.06-0.73 12.39-2.86 18.14 1.65 4.83 6.29 13.2-1.63 7.13-1.56 5.46-7.18 8.4-8.73 13.73 5.91-3.44 18-6.33 13.29 5.07 1.31 6.38-8.86 14.62-12.53 7.55-5.03 3.38-16.77 1.3-17.16-6.07 2.7 4.81 8.09-6.18 6.31 3.44 7.19-4.44 7.24-11.7 0.93-16.9-6.05-6.13 5.55-6.42 4.04-12.83-3.72 4.58-11.68 0.06-9.55 7.28-10.44 0.8-2.04-15.47-9.64-19.26-4.56-2.74 4.48-7.02-2.06-5.98-2.12-10.21-5.46-20.4-4.07-30.99 3.37-4.86 9.44-13.24-2.67-10.03-1.74-0.25-3.48-0.55-5.19-0.93z"/>
<path id="path132" fill="#dabe90" d="m361.7 640.34c16.52-0.81 32.87-2.23 49.37-3.53l-0.78 0.41c-4.93 2.88 1.39 10.52-1.82 15.49 6.57 3.54-0.89 12.45 5.22 17.21 7.91 6.67-0.01 15.99 2.01 24.3 1.69 3.09 9.31 5.95 6.11 9.54-13.05-6.16 2.89 11.98-1.26 18.05 5.08 0.99-3.75 8.94 4.87 6.35-0.91-2.67-1.79-9 1.76-4.55-0.54 9.81 2.7 22.69 11.66 27.11 0.14-7.72-1.28-18.27-1.2-28.59 10.22-0.31 7.87-13.55 1.46-16.98 8.18-3.79 2.51-10.39 0.79-16.03 4.34 3.27 7.45 3.32 4.7-2.54 0.68-14.25-7.5-32.53 5.17-43.98-4.56 5.16-5.78 15.01-1.3 19.78 8.26-1.79 5.42 8.69 6.93 14.14-8.17 4.98 4.42 4.28 8.41 4.2 5.56-2.16 3.97 7.7 9.09 6.8 5.92-1.2-3.86 9.69 2.42 7.81 5.8 1.62-10.58 1.37-5.2 6.51 5.22 6.53-6.35-4.24-5.67 0.6 6.09 3.9-6.16 9.13-0.65 13.91 5.27 4.86 8.06-4.4 5.69-8.37 9.78 1.39 6.24 21.41 14.51 10.55 0.81 8.27 3.82-6.86 3.9-10.37-6.84-1.24-3.51-11.2-9.76-14.54 1.93-4.45 8.89-16.36-1.06-15.86 2.11-12.6 18.87-19.55 9.21-33.01 11.38 4.84 12.19 20.56 9.81 31.07-1.74 56.32-15.11 111.68-15.96 168.12-4.58 4.96-2.07 15.13-5.54 18.71-7.44-9.13-8.19 10.73-0.58 6.45 6.38-2.63 5.03 13.94-0.55 10.7-3.72-1.63-2.9 5.08-0.14 5.75 5.94 2.1 2.03 9.61 3.39 14.16-5.06 4.03-4.24-6.72-9.69-6.76-2.98 4.39-4.1 9.72-5.36 14.8 3.36-2.65 4.98-6.63 6.59-10.44 5.02 0.13 0.61 4.85-0.07 7.51 7.22-4.74 6.32 7.12 1.29 9.6 0.53 5.01 0.35 10.11-3.22 13.44 6.72 3.5 4.77 10.6 4.03 17.19-3.67 3.79-4.25-4.33-7.42-2.43 0.29 5.07-0.19 18.51 8.06 16.82 3.64 3.86-13.63 5.18-11.57-1.5-3.7 3.91-0.67 12.34 4.94 11.3 7.04 3.03-4.65 9.88-6.13 8.73 2.63-5.83-6.11-12.97-9.24-6.31 4.47-1.59 4.58 1.89 3.11 5.24-4.3-1.43-5.81-6.85-7.78-10.61 2.69 1.84 6.17 0.66 4.51-2.89 6.57 0.23 8.53-12.27 0.53-11.06-1.79 4.87-2.46 13.93-9.8 12.36 2.3-6.77-1.62-13.9 3.49-19.59-3.83-7.81-4.88 3.13-5.67 7.08-2.59 1.81-9.92-7.79-11.36-1.28-1.27 5.85-9.93-1.83-5.97 6.2 1.45 12.48-1.76-4.15-6.84-3.04 0.2 4.13 2.9 7.34 4.77 10.82-3.94-0.02-8.39 1.79-11.96 0.29-6.53-8.78-21.23-9.72-30.19-7.5-4.19-3.6-7.85 12.74-3.2 18.54-2.56 5.44-10.35 4.81-15.37 7.2-6.66 0.35-10.22-9.06-2.45-10.57-4.72-1.51-1.28-6.76 2.29-3.14-0.07-3.1 1.36-14.41-4.81-15.12 3.66 8.68-4.59 14.96-10.92 18.51-0.88-4.86 8.6-8.73 0.39-9.68 0.32-3.17 3.3-8.63-2.44-10.21 0.87 2.95 2.66 6.35-0.15 8.88-4.96-3.3-4.3-9.21-4.44-14.4-3.76-2.39-4.12 5.65-7.2 3.8-1.65-3.59-2.46-7.49-3.89-11.14-5.95-1.96-4.9 9.66-8.35 10.33-4.26-0.79 0.55-8.14-4.61-7.68 3.21 4.44-4.06 12.08-4.39 4.03 2.9-7.63-1.64-11.17-6.04-15.89 3.61-1.89 12.44-5.42 4.28-8.13 2.67 5.86-9.3 5.24-5.7-0.59-3.5 3.24-6.29 1.55-7.27-2.81-5.47-1.4-5.72 4.1-4.09 7.77 2.29 5.75-9.53 7.5-9.03 1.69 0.18-7.98-2.41-15.61-4.1-23.31 2.16-6.61 6.99 5.98 9.31-0.36-9.12-5.61 5.89-12.84 2.69-20.17-4.83-1.06-0.92 6.04-5.22 4.38 0.48-6.39 7.11-17.92 8.45-6.69 4.48-0.04 0.42-7.52 5.24-6.66-0.92 7.73-1.39 17.27-9.23 21.35-7.12 3.72 5.33 10.28 8.04 4.85 5.51-2.45 5.09-8.95 4.01-13.93 3.41 0.68 7.74-0.44 7.18-4.78-2.48-0.37-5.67-0.06-5.72-3.4 2.66 0.55 7.25 2.56 5.65-1.97-2.71-8.92 9.2-2.21 5.42 2.91-5.48 4.08 4.37 14.43-0.39 14-4.03-12.34-13.1 10.43-4.07 12.15 6.49 3.32-2.71-14.29 4.52-7.57 7.35 5.3-0.35 11.47 1.4 17.96 1.39-11.07 5.51 7.93 12.13 2.03 8.19-3.08 4.41-12.68 1.98-18.46-3.61-6.08 12.33-7.99 4.5-12.51-5.57-3.13 5.2-4.12 3.81-8.69-4.36 3.96-7.93-4.16-1.69-2.26 6.7 1.83 5.3-11.26 0.67-4.01-0.19-9.26-7.89-4.63-3.26 2.12-10.99-1.53-1.6-16.57 5.25-10.6-4.74-13 3.94-7.52 8.01-0.41-1.28-6.06-3.35-13.64-7.92-17.68 0.02 4.52-3.78 8.34-6.63 2.33-7.88-3.9-1.39-15.01 5.73-13.21 4.62 3.22 6.72 10.61 12.57 11.86-6.32-6.14-1.81-13.29-9.61-19.04-3.87 7.07-13.39 0.68-10.58-6.03 4.57-0.57 2.9 4.08 1.85 6.64 4.9-0.27 5.67-5.46 7.27-9.12 1.55 1.95 5.63 12.76 8.1 6.92 0.03-8.05 13.49 5.51 6.12 6.48-0.02 7.42 4.86 13.44 6.06 20.6 7.23-0.39-5.29-13.8 2.99-15.76-2.87 6.93 5.87 3.04 0.85 11.81 7.01-7.4 6.04 8.29 5.38 13.06-6.39 2.49 0 6.6 3.91 3.49-1.31 13.37-1.09 26.68 0.76 40.04 3.48-0.87 6.76-1.32 8.31 2.55-0.32-5.32 1.1-9.67 6.68-11.59-5.07-12.99-2.31-28.88 2.49-38.64-7.38-2.86-2.38-9.7 3.22-10.57-1.25-6.71 3.73-7.86 7.5-3.61-5.16-12.68 8.76-23.71 5.84-36.45-3.58 1.9-3.98 9.91-8.81 6.17-1.76 4.04-1.52 11.05-5.18 13.4 0.63-5.22-4.23-13.57 3.38-14.4 2.81-4.96-7.04-7.6-3.93-13.05 6.58-2 3.23 12.34 11.34 6.56-1.3-4.79-4.56-9.23-2.3-15.26-9.05 4.68-6.34-5-4.45-10.15-10.03 6.32-12.13-18.62-2.22-18.6-0.94-6.06-13.11 1.78-9.44-3.48 8.74-0.76 1.64-12.65 0.43-17.02 7.37-6.71-2.2-15.46 1.45-23.44 1.8-6.43-7.56-7.87-9.08-13.69 6.82 2.7 2.79-6.72 6.2-10.04-1.2-6.18 7.05-15.77-3.97-15.16-0.93-1.02-1.77-2.11-2.5-3.26 2.63-10.47 2.18-21.28 3.91-31.88 1.13-9.13-12.35-1.29-16.97-5.48z"/>
<path id="path134" fill="#e4d7c4" d="m411.07 636.81c8.21 0.1 16.43 0.06 24.65 0.19-6.59 3.46-15.03-0.52-21.77 2.42 3.92 18.74 8.19 39 14.02 56.28 5.41-9.51 6.21-25.16 11.76-36.06-2.94 14.96-5.16 31.09-11.75 44.73-8.07-8.6-4.72-22.61-9.09-33.09-5.22-10.67-5.06-22.86-8.6-34.06l0.78-0.41z"/>
<path id="path136" fill="#eae7f3" d="m344.32 640.15c5.75-0.42 11.62-0.54 17.38 0.19 4.62 4.19 18.1-3.65 16.97 5.48-1.73 10.6-1.28 21.41-3.91 31.88-3.52 35.25-6.02 70.71-9.34 105.94 4.12 5.08-4.73 9.92-2.63 1.65 2.4-38.32-5.15-76.11-10.05-113.93-3.14-9.81-8.02-19.64-15.77-26.64-1.02-4.5 4.96-1.37 6.74-3.82l0.61-0.75z"/>
<path id="path138" fill="#e2d2ba" d="m330.04 643.98c-3.14-6.7 10.52-1.27 13.67-3.08-1.78 2.45-7.76-0.68-6.74 3.82 7.75 7 12.63 16.83 15.77 26.64 4.9 37.82 12.45 75.61 10.05 113.93-2.1 8.27 6.75 3.43 2.63-1.65 3.32-35.23 5.82-70.69 9.34-105.94 0.73 1.15 1.57 2.24 2.5 3.26-7.48 51.18-6.48 104.4-12.4 155.13-6.32-27.48-5.35-56.98-4.29-85.39-1.25-20.03-7.71-39.27-7.05-59.44-3.39-17.08-5.1-39.56-23.48-47.28z"/>
<path id="path140" fill="#d8bb8b" d="m120.21 689.27c3.97 2.74 0.21 15.5 8.55 18.78-4.87-7.17 9.49-11.4 4.17-3.08 3.4 1.38 6.24 12.86 6.66 3.69 4.74-5.1 7.8 3.42 2.61 5.76-0.12 6.29 3.42 16.61-4.86 19.18-0.01 6.09 14.34-7.18 12.66 6.5-2.42 7.36 9.85 8.66 5.02 14.91 18.9-1.3 1.21 27.32 16.18 27.03 2.35 6.01 3.61 12.8 2.39 19.23 6.64 10.07 11.46 20.06 12.27 31.62-8.12 7.48 13.17 19.34 0.18 26.26-2.34-12.39-8.52 9.83-0.41 4.61 7.32-2.47 0.29 8.57 6.19 9.41 4.34 2.46 4.88 10.72 2.04 14.8-4.59-0.99-2.18-9.51-7.68-9.74-7.63 3.81 0.55 21.08 8.95 13.94-1.28 10.08 3.06 22.24-4.91 30.33 2.4 7.74-15.1 3.44-3.94 9.22-0.74 6.75-12.79-4.09-14.02 3.52-1.37 7.23-13.15-5.07-4.2-5.61 7.68 1.85 4.09-10.79-1.29-4.72-1.54-4.62-0.08-11.63 5.64-10.69-0.03-8.95-5.8-12.78-14.5-9.32-1.49-6.87-9.67-11.43-2.91-18.83-8.14-4.45-1.67-12.35-4.71-19.53-11.7 2.57 6.21-23.74-8.57-25.38-1.38-2.39 3.42-7.61-1.76-9.19 2.29-2.61 8.3-8.97 0.83-7.3 2.63-6.87-12.22-18.43-4.77-26.77-9.13 3.92-3.09-8.84-4.13-13.49-3.32-3.74-2.35-9.95-6.72-12.67 1.35-2.74 8.8-5.13 5.52-9.53-6.34-1.52-6.56-8.21-8.73-13.31 2.96 2.79 10.81 7.64 9.1-1.81-0.89-3.86-4.23 3.92-5.39 0.93-2.29-4.75 3.67-7.62 4.54-11.9-7.02 10.5-19-14.68-6.28-9.24-0.31-4.97 4.72-3 3.77-7.63-0.28-11.08-6.83 6.23-10.91-0.11-5.41-3.17 2.33-10.58-4.78-12.29-7.7-6.7 4.07-12.57 8.2-17.58z"/>
<path id="path142" fill="#ebe8f2" d="m571.88 767.11c1.02-3.22-0.49-8.51 4.15-9.12-11.22 74.64-20.32 150.95-11.48 226.27-5.81 4.83-15.16 6.14-22.81 6.63 5.82-26.53 4.46-55.15 6.21-82.43 2.04-20.51 1.71-41 6.29-61.09 8.94-26.08 11.29-53.64 17.64-80.26z"/>
<path id="path144" fill="#cca774" d="m97.6 807.01c8.66 1.26 0.64 24.71 14.03 23.53 3.87-1.31 1.7 3.09-0.98 2.72 0.32 2.82 6.39 4.64 3.73 9.2-3.87 6.07 5.94 8.87 4.07 15.13 5.9-4.16 5.89 6.53 9.69 9.13 4.67 3.49-4.77 3.89-2.63 7.91 4.89 2.23 3.61-5.47 6.42-6.35 2.36 3.82 2.85 8.29 1.73 12.59 1.63 5.79 13.59 19.55 0.74 19.45-7.14-0.82-4.3 11.65 2.29 9.24-0.15-11.59 12.96 3.86 2.75 5.8 8.84 11.18 12 29.7 9.53 42.78 12.34 8.68 9.41 29.27 24.41 34.93 6.84-1.52 14.46-3.03 21.77-5.09-6.47 3.37-5.19 11.04-1.11 16.02 1.17-4.11 0.05-13.74 7.29-11.91 11.6 4.12 9.4 16.61 11.93 24.41-0.02 9.9 5.63-7 9.14-1.7-0.43 4.2-3.13 10.4-8.32 8-3.65 8-3.78 17.8 7.61 17.1 5.54-6.6-0.11-16.7 5.74-24.3-7.32-10.2 9.79-8.3 13.96-7.6-2.95 8.1 2.44-1.4 6.61 0.2 4.51 1.4 3.53 11.1 9.03 8.8 6.87-4.7 3.59 9.8 9.34 7 11-3.6-1 15.6 8.46 16.4 6.14-0.8-2.78 6.7 3.18 8.4 6.49-5.5 7.63-19.2 17.04-11.1-4.82 6-1.21 16.1 1.92 3.3 2.52 10.1 7.39 0.4 11.81-1-3.77 8 1.45 6 7.16 8.1-0.97 6.1-9.41-1.2-11.06 4.9 3.79 1.8 8.23 1.8 12.01 3.9 3.25-3.2 5.37-12.4 11.08-9.9 5.9 2.6-1.35 10-3.97 4.1-2.87 3-1.63 7.8-1.98 11.7 5.5-4.7 14.51 2.7 10.32-10.1 3.37-1.1 8.84 10.7 14.68 3.4-1.22 7.8 5.79 2.9 8.44 1.4 2.38 8.7 18.66 9.9 14.9-1.1 3.76-3.8 3.37 4.9 1.66 7.3 4.02-1.9 6.62-1.4 5.71 3.5 4.7-0.6 10.01-3.9 14.44 0.6 12.82-5.5 24.02 2.3 38.77 1.3-36.87 0.3-75.53 3.1-112.53-4.5-35.23-7.5-70.91-11.6-107-16-33.36-7-67.03-21-90.14-46.9-10.75-7.63-21.89-18.36-21.32-32.54 3.14-7.71-10.09-9.6-4.21-16.4-8.81-37.9-19.29-75.85-26.01-114.6 4.94 12.63 7.79-7.77 14.75 0.39 4.01-3.68 6.75-20.11 15.12-12.45-1.52-6.27-0.87-12.77-2-19.09z"/>
<path id="path146" fill="#d7b988" d="m698.1 899.69c9.04-2.46 11.88 10.14 13.4 16.42-3.82 24.44-10.77 49.52-21.29 72.16-4.32 8.34-7.47-2.72-11.02-3.56 2.86-6.51 2.26-16.71-6.12-18.47-2.74 3.31-10.83 5.41-7.56-1.26-5 4.31-11.29 8.59-19.04 6.83-4.99 4.06-13.01 18.5-17.08 11.61-4.91 3.72-7.59 9.48-11.56 14.06-5.63-2.13-9.72 4.22-15.29 4.12-3.42-4.32-8.77-5.74-14.03-6.56 1.41 6.16-3.62 15.46-10.51 9.96-9.54-6.09-8.47 21.3-14.02 10-3.11 0.5-2.16 4.1-2.94 6.3-3.73 2.8-12.12 1.8-9.3 8.5-4.22-1.9-6.12 3.7-5.9 6.9 5.01-0.4 6.28-8.3 11.69-7.2 2.96 3.5 6.31 6.6 9.78 9.6-0.05-4.3 4.42-7.3 8.53-6.9-5.96 8.8 10.17 12.3 1.23 21-7.84 3.6-17.16 4.5-25.9 4.7-20.99 1.4-41.73 6.9-62.96 6.6-6.3 0.2-13.91 6.6-18.32-0.3-11.43 4.6-21.69 2.8-27.97-7.4-9.04-3.2 5.06-17.2 2.5-6 5.27 4.9 2.31-7.8 6.26-8.3 3.62 4.7 9.97-1.9 12.7 4.2 6.11 5-0.12-8.8 4.61-5.7 5.04 2.2-1.05-7.5 4.91-6.4 8.23-1.4-3.11-10.4-5.34-4.5 3.92 5.9-8.6 14.7-11.07 7.4-2.21-6.5-10.91-1-12.69-9 7.83-3.2 9.6 4.8 17.74 2.5 0.11-9.9-7.32-8.5-14.43-14.2-5.33-6.8-7.91 9-12.69 3.8-2.04-9.8-12.56-0.2-10.23 6.3-13.93 3.7-2.13 22.2 4.87 30-4.87-3.1-13.59-2.6-14.77-9.5 7.98 3.4 4.92-12.2-1.28-7-6.57-1.8 1.48-11.1-6.47-9 2.37-7.1-6.16-6.5-11.06-8.2-0.68 4.1 0.21 15.1-5.63 7.9-4.55-9-7.62 6.9-12.16-0.8-0.33 9.3 10.32 20.1 0.86 27.6-5.04-1.1-2.97-9.6-1.59-13.7-6.09-1.8-1.57-10.7-9.76-6.8-5.23-7.7-8.21 6.2-14.39 2.4-6.51 2.8-4.98-11.8-9.12-3.3-5.23-3.5-13.21 3.1-4.06 3.2 0.77 10.9-7.24-6.5-10.33-0.5-3.94 2.2-2.37-8.7 1.22-6.6 2.5 9.4 6.17-12 10.71-5.9 2.62 5 8.75-1.3 6.05-5.4-2.75 3.4-6.23 2.5-9.16 0-3.17 5.8-13.38-5.4-11.51 4.2-3.42 5.8-0.26-10.5-4.57-5.3-1.06 5.2-2.15 16.8-4.45 5.2-3.53-4.6-3.66 6.1-8.18 4.8-2.45-3.4 3.28-8.3-4.99-4.2-8.09 10.3-1.91-7.4 2.96-9.6-3.32-5.2-9.94 3.9-11.93 3.1 4.28-5.8-3.68-4-3.93-7.9 5.54-0.5 11.05 0.8 16.23 2.6 1.39 2.6 2.72 5.4 6.08 4 14.31-3.6 42.54-5.3 42.12 14.6 7.65-5 16.6-6.4 21.73-14.2 15.52-6.9 35.58 6.1 49.33-6.8 7.58 5.9 15.59-1.2 22.28-4.8 9.57-0.3 14.46 7.5 19.82 13.8 16.27 4.9 19.99-25.51 37.85-19.4 7.58-12.33 17.83 1.6 27-6.34 3.35 4.37 4.45 10.74 2.18 15.84 8.84-6.2 20.18 1.8 28.87-4.8 1.39-5.1 5.86-5.3 10.31-4.4 1.53-6.71-1.51-11.68-5.3-13.15-1.29-5.96 11.31-10.39 10.63-1.84-0.09-5.14 5.75-6.72 2.75 0.87 2.6 5.66 9.08-9.46 8.02-1.44-0.6 9.05 15.89-0.63 13.25 11.05 3.77 2.91 5.21-3.14 4.89-5.98 5.66-4.03 14.12-4.49 16.64-12.07 1.05-6.45 13.41-5.21 9.26-12.97 5.22-5.44 15.23 6.6 19.02-4.5 7.34-1.12 14.23-7.86 22.12-5.4 0.66-5.04 4.74-6.79 9-8.3-4.78-6.41 7.95-8.45 3.99-14.64-3.58-12.13 8.26-21.83 8.51-33.64z"/>
<path id="path148" fill="#d0ad7a" d="m646.47 971.81c7.75 1.76 14.04-2.52 19.04-6.83-3.27 6.67 4.82 4.57 7.56 1.26 8.38 1.76 8.98 11.96 6.12 18.47 3.55 0.84 6.7 11.9 11.02 3.56-25.04 36.13-70.59 54.83-113.14 64.93 8.94-8.7-7.19-12.2-1.23-21-4.11-0.4-8.58 2.6-8.53 6.9-3.47-3-6.82-6.1-9.78-9.6-5.41-1.1-6.68 6.8-11.69 7.2-0.22-3.2 1.68-8.8 5.9-6.9-2.82-6.7 5.57-5.7 9.3-8.5 0.78-2.2-0.17-5.8 2.94-6.3 5.55 11.3 4.48-16.09 14.02-10 6.89 5.5 11.92-3.8 10.51-9.96 5.26 0.82 10.61 2.24 14.03 6.56 5.57 0.1 9.66-6.25 15.29-4.12 3.97-4.58 6.65-10.34 11.56-14.06 4.07 6.89 12.09-7.55 17.08-11.61z"/>
<path id="path150" fill="#e8e5e7" d="m479.16 966.94c3.19 10.95 3.77 26.47 4.64 39.76-3.33 2.4-10.48 4.8-12.76 0.3 5.44-12.76 3.69-27.01 8.12-40.06z"/>
<path id="path152" fill="#e4d6c1" d="m211.19 968c2.65-0.69 5.25 1.74 4.46 4.43 1.86 9.59 10.06 18.06 6.23 28.27-16.18 0-13.61-22.33-10.69-32.7z"/>
<path id="path154" fill="#e8ded1" d="m314.28 1000.2c7.35 0 10 18.4-0.21 15.9-8.79 0.3-3.92-12.7 0.21-15.9z"/>
<path id="path156" fill="#e9e1d9" d="m368.34 1000.2c7.45 0.1 4.51 13.3 5.62 18.2-4.96 3.6-18.66 4.2-17.8-4 6.18-2.8 7.69-9.8 12.18-14.2z"/>
</g>
</svg>
